<?xml version="1.0" encoding="utf-8"?>
<!-- Generator: Adobe Illustrator 27.5.0, SVG Export Plug-In . SVG Version: 6.00 Build 0)  -->
<svg version="1.1" xmlns="http://www.w3.org/2000/svg" xmlns:xlink="http://www.w3.org/1999/xlink" x="0px" y="0px"
	 viewBox="0 0 3710 3710" style="enable-background:new 0 0 3710 3710;" xml:space="preserve">
<g id="Background">
	<g>
		<g>
			<rect style="fill:#FFFFFF;" width="3710" height="3710"/>
		</g>
	</g>
</g>
<g id="Illustration">
	<g>
		<linearGradient id="SVGID_1_" gradientUnits="userSpaceOnUse" x1="3616.2727" y1="4061.9885" x2="1133.1539" y2="978.111">
			<stop  offset="0" style="stop-color:#DAE3FE"/>
			<stop  offset="1" style="stop-color:#E9EFFD"/>
		</linearGradient>
		<path style="fill:url(#SVGID_1_);" d="M2933.151,2845.819c-57.036,60.045-111.003,98.768-153.642,129.362
			c-501.206,359.621-1094.266,254.793-1220.308,229.193c-186.124-37.803-545.899-110.875-806.009-416.76
			c-393.525-462.778-332.248-1191.871-27.003-1673.156c55.834-88.035,350.766-576.651,950.213-655.009
			c362.779-47.422,785.663,48.222,1091.904,304.791C3411.134,1302.801,3365.371,2390.791,2933.151,2845.819z"/>
		<g>
			
				<linearGradient id="SVGID_00000080190157722844999720000017214586454247954081_" gradientUnits="userSpaceOnUse" x1="2295.9937" y1="764.5142" x2="380.6736" y2="3280.2336" gradientTransform="matrix(0.9999 0.0148 -0.0148 0.9999 -283.4461 -40.2419)">
				<stop  offset="0" style="stop-color:#09005D"/>
				<stop  offset="1" style="stop-color:#1A0F91"/>
			</linearGradient>
			<path style="fill:url(#SVGID_00000080190157722844999720000017214586454247954081_);" d="M628.066,700.828l1208.164,17.918
				c66.654,0.989,120.84,54.037,123.242,120.655l63.202,1752.934c1.88,52.131-39.778,95.462-91.942,95.636l-1385.081,4.631
				c-49.015,0.164-88.633-39.911-87.906-88.921L483.89,840.789C485.054,762.327,549.604,699.664,628.066,700.828z"/>
			<g>
				
					<linearGradient id="SVGID_00000161607941266535013110000010854436580437936521_" gradientUnits="userSpaceOnUse" x1="3331.9209" y1="1464.2651" x2="1671.9335" y2="3059.0415" gradientTransform="matrix(0.9283 -0.3718 0.3718 0.9283 -1963.8119 613.6518)">
					<stop  offset="0" style="stop-color:#4F52FF"/>
					<stop  offset="1" style="stop-color:#4042E2"/>
				</linearGradient>
				<path style="fill:url(#SVGID_00000161607941266535013110000010854436580437936521_);" d="M631.992,686.684
					c164.654,24.82,730.97,102.432,1200.577,73.381c21.416-1.325,39.74,15.158,40.561,36.599l67.416,1760.806
					c0.924,24.144-17.803,44.5-41.941,45.57c-197.456,8.749-1010.598,41.832-1299.945,7.18c-17.61-2.109-30.778-17.157-30.62-34.893
					l16.536-1848.179C584.801,702.044,607.166,682.942,631.992,686.684z"/>
				<path style="fill:#91B3FA;" d="M648.987,732.586c158.454,23.886,703.445,98.575,1155.368,70.618
					c20.609-1.275,38.244,14.587,39.033,35.221l64.878,1694.502c0.889,23.234-17.133,42.824-40.362,43.853
					c-190.021,8.42-972.544,40.257-1250.995,6.91c-16.947-2.029-29.619-16.511-29.467-33.578l15.913-1778.585
					C603.572,747.367,625.096,728.984,648.987,732.586z"/>
				<path style="opacity:0.78;fill:#FFFFFF;" d="M748.4,904.248l11.48,363.248c0.381,12.081,9.992,21.826,22.069,22.346
					c67.199,2.893,276.608,11.109,394.982,6.698c13.39-0.5,24.135-11.166,24.778-24.551c3.265-68.042,11.139-266.108-3.145-349.167
					c-2.307-13.417-13.662-23.391-27.259-24.069l-397.155-19.789C759.826,878.25,747.947,889.916,748.4,904.248z"/>
				
					<ellipse transform="matrix(0.5915 -0.8063 0.8063 0.5915 -438.134 1210.0636)" style="fill:#91B3FA;" cx="975.125" cy="1037.419" rx="78.042" ry="78.042"/>
				<path style="fill:#91B3FA;" d="M853.2,1264.765l248.604,3.687c15.242,0.226,24.624-16.468,16.607-29.433
					c-20.627-33.355-64.088-82.552-140.636-81.496c-73.777,1.017-118.137,44.216-140.576,75.336
					C827.672,1246.069,836.914,1264.523,853.2,1264.765z"/>
				<g style="opacity:0.6;">
					<path style="fill:#FFFFFF;" d="M1752.227,950.74c2.2,0.033,3.974-1.74,3.942-3.94l-0.235-16.366
						c-0.032-2.2-1.856-4.058-4.055-4.13l-455.927-14.891c-2.199-0.072-3.425,1.576-2.725,3.662l8.461,25.211
						c0.7,2.086,3.072,3.819,5.272,3.851L1752.227,950.74z"/>
				</g>
				<g style="opacity:0.6;">
					<path style="fill:#FFFFFF;" d="M1294.948,979.085c-2.199-0.072-3.425,1.576-2.725,3.662l8.461,25.21
						c0.7,2.086,3.073,3.819,5.272,3.851l445.267,6.604c2.2,0.033,3.974-1.74,3.942-3.94l-0.235-16.366
						c-0.032-2.2-1.857-4.058-4.055-4.13L1294.948,979.085z"/>
				</g>
				<g style="opacity:0.6;">
					<path style="fill:#FFFFFF;" d="M1293.93,1047.74c-2.199-0.072-3.425,1.576-2.725,3.662l8.461,25.21
						c0.7,2.086,3.073,3.819,5.272,3.852l445.268,6.604c2.2,0.033,3.974-1.74,3.942-3.94l-0.235-16.366
						c-0.032-2.2-1.856-4.058-4.055-4.13L1293.93,1047.74z"/>
				</g>
				<g style="opacity:0.6;">
					<path style="fill:#FFFFFF;" d="M1787.619,1418.785c2.2,0.033,3.908-1.738,3.795-3.935l-0.838-16.389
						c-0.112-2.197-2.004-4.036-4.203-4.086l-1041.008-23.647c-2.199-0.05-2.899,1.334-1.554,3.075l20.603,26.678
						c1.345,1.741,4.245,3.193,6.445,3.225L1787.619,1418.785z"/>
				</g>
				<g style="opacity:0.6;">
					<path style="fill:#FFFFFF;" d="M744.361,1438.399c-2.199-0.05-2.899,1.334-1.554,3.075l20.603,26.678
						c1.345,1.741,4.245,3.193,6.445,3.225l1016.761,15.079c2.2,0.033,3.908-1.738,3.795-3.935l-0.838-16.389
						c-0.112-2.197-2.004-4.036-4.203-4.086L744.361,1438.399z"/>
				</g>
				<g>
					<path style="fill:#FFFFFF;" d="M884.417,1702.052c-0.198,0-0.397-0.003-0.595-0.008l-86.144-2.105
						c-12.347-0.302-22.416-8.951-23.417-20.119l-6.504-72.4c-0.384-4.272,1.005-8.468,3.905-11.818
						c3.247-3.745,8.108-6.054,13.336-6.334l0,0c7.265-0.388,17.495-1.108,28.328-1.868c22.607-1.589,50.694-3.561,66.737-3.561
						c0.149,0,0.298,0,0.443,0c11.517,0.026,21.367,7.139,23.95,17.294c4.249,16.678,3.386,48.086,2.037,81.538
						C906.056,1693.467,896.212,1702.051,884.417,1702.052z M785.361,1596.031c-3.406,0.182-6.531,1.642-8.581,4.006
						c-1.686,1.948-2.496,4.355-2.278,6.779l6.504,72.4c0.694,7.737,7.933,13.737,16.837,13.956l86.144,2.105
						c8.379,0.175,15.442-5.572,15.739-12.879c1.329-32.931,2.189-63.798-1.832-79.594c-1.795-7.045-9.113-12.172-17.403-12.192
						c-0.146,0-0.291,0-0.433,0c-15.802,0-43.757,1.964-66.258,3.545C802.939,1594.918,792.678,1595.639,785.361,1596.031
						L785.361,1596.031z"/>
					<g style="opacity:0.6;">
						<path style="fill:#FFFFFF;" d="M957.729,1628.084c-2.2-0.039-3.566,1.676-3.037,3.811l8.791,35.457
							c0.529,2.135,2.763,3.89,4.963,3.9l801.807,3.502c2.2,0.01,3.987-1.782,3.972-3.982l-0.17-24.151
							c-0.016-2.2-1.828-4.032-4.027-4.071L957.729,1628.084z"/>
					</g>
					
						<linearGradient id="SVGID_00000137818608047972011390000014181147590545028792_" gradientUnits="userSpaceOnUse" x1="1358.8271" y1="1281.6984" x2="918.8401" y2="2032.6527" gradientTransform="matrix(0.9999 0.0148 -0.0148 0.9999 -283.4461 -40.2419)">
						<stop  offset="0" style="stop-color:#E1473D"/>
						<stop  offset="1" style="stop-color:#E9605A"/>
					</linearGradient>
					<path style="fill:url(#SVGID_00000137818608047972011390000014181147590545028792_);" d="M798.011,1614.943L798.011,1614.943
						c6.452-3.659,14.65-1.297,18.167,5.234l16.542,30.714c1.656,3.075,6.109,2.948,7.586-0.216l43.541-93.211
						c2.172-4.65,9.119-2.964,8.966,2.166c-0.856,28.696-9.281,83.142-55.82,128.131c0,0-25.127-10.199-44.818-55.194
						C789.332,1626.067,791.841,1618.442,798.011,1614.943z"/>
					<path style="fill:#FFFFFF;" d="M881.682,1886.705c-0.198,0-0.4-0.003-0.599-0.008l-86.144-2.105
						c-12.347-0.299-22.412-8.949-23.418-20.119l-6.504-72.4c-0.384-4.271,1.005-8.467,3.905-11.816
						c3.247-3.746,8.104-6.054,13.332-6.334c7.258-0.388,17.479-1.106,28.298-1.867c22.617-1.59,50.72-3.564,66.771-3.564
						c0.149,0,0.298,0,0.443,0c11.52,0.028,21.367,7.141,23.95,17.294c4.246,16.667,3.386,48.08,2.034,81.538
						C903.314,1878.12,893.474,1886.705,881.682,1886.705z M782.438,1777.304l0.182,3.381c-3.403,0.182-6.527,1.642-8.577,4.006
						c-1.686,1.948-2.497,4.353-2.278,6.777l6.504,72.4c0.694,7.739,7.933,13.739,16.837,13.956l86.144,2.105
						c0.146,0.003,0.291,0.005,0.433,0.005c8.19,0,15.012-5.702,15.303-12.884c1.329-32.937,2.189-63.808-1.829-79.594
						c-1.795-7.043-9.113-12.17-17.406-12.192c-0.142,0-0.288,0-0.433,0c-15.806,0-43.773,1.966-66.288,3.548
						c-10.852,0.762-21.099,1.481-28.41,1.873L782.438,1777.304z"/>
					<path style="opacity:0.6;fill:#FFFFFF;" d="M791.773,1788.206c18.118-0.969,57.514-4.379,76.175-4.335
						c7.907,0.019,14.77,4.898,16.522,11.78c3.403,13.367,2.533,39.898,1.544,64.383c-0.296,7.333-7.12,13.088-15.345,12.887
						l-68.84-1.682c-8.465-0.207-15.409-6.084-16.086-13.615l-5.196-57.856C780.01,1793.783,785.058,1788.565,791.773,1788.206z"/>
					<g style="opacity:0.6;">
						<path style="fill:#FFFFFF;" d="M954.99,1812.737c-2.2-0.039-3.566,1.676-3.037,3.811l8.792,35.457
							c0.529,2.135,2.763,3.89,4.963,3.9l801.806,3.502c2.2,0.01,3.987-1.782,3.972-3.982l-0.17-24.151
							c-0.016-2.2-1.828-4.032-4.027-4.071L954.99,1812.737z"/>
					</g>
					<path style="fill:#FFFFFF;" d="M878.941,2071.36c-0.198,0-0.397-0.003-0.595-0.008l-86.144-2.106
						c-12.35-0.299-22.419-8.949-23.417-20.117l-6.504-72.4c-0.383-4.272,1.005-8.468,3.909-11.818
						c3.244-3.746,8.101-6.054,13.329-6.334l0,0c7.265-0.389,17.499-1.108,28.334-1.868c23.765-1.672,50.674-3.561,66.701-3.561
						c0.162,0,0.317,0,0.476,0c11.517,0.026,21.367,7.137,23.95,17.292c4.246,16.669,3.386,48.08,2.034,81.538
						C900.576,2062.774,890.733,2071.36,878.941,2071.36z M779.882,1965.338c-3.403,0.182-6.527,1.642-8.577,4.006
						c-1.686,1.948-2.496,4.355-2.278,6.779l6.504,72.4c0.691,7.738,7.929,13.736,16.837,13.954l86.144,2.106
						c8.362,0.208,15.439-5.572,15.736-12.881c1.329-32.936,2.189-63.808-1.829-79.594c-1.796-7.043-9.113-12.17-17.403-12.19
						c-15.875,0.043-43.981,1.948-66.691,3.545C797.463,1964.226,787.199,1964.947,779.882,1965.338L779.882,1965.338z"/>
					<path style="opacity:0.6;fill:#FFFFFF;" d="M789.035,1972.859c18.118-0.969,57.514-4.379,76.175-4.335
						c7.907,0.019,14.769,4.898,16.522,11.78c3.403,13.367,2.533,39.898,1.544,64.383c-0.296,7.333-7.12,13.088-15.346,12.887
						l-68.84-1.682c-8.465-0.207-15.409-6.084-16.086-13.615l-5.196-57.856C777.272,1978.436,782.319,1973.218,789.035,1972.859z"/>
					<g style="opacity:0.6;">
						<path style="fill:#FFFFFF;" d="M952.252,1997.391c-2.2-0.039-3.566,1.676-3.037,3.811l8.792,35.457
							c0.53,2.135,2.763,3.89,4.963,3.9l801.806,3.501c2.2,0.01,3.987-1.782,3.972-3.983l-0.17-24.151
							c-0.016-2.2-1.828-4.032-4.027-4.071L952.252,1997.391z"/>
					</g>
					<path style="fill:#FFFFFF;" d="M876.203,2256.013c-0.198,0-0.397-0.003-0.595-0.008l-86.144-2.106
						c-12.347-0.299-22.419-8.949-23.421-20.118l-6.501-72.4c-0.384-4.271,1.002-8.467,3.902-11.816
						c3.244-3.746,8.108-6.056,13.336-6.335l0,0c7.261-0.389,17.495-1.108,28.328-1.868c22.819-1.604,51.329-3.627,67.184-3.561
						c11.514,0.026,21.361,7.137,23.95,17.29c4.246,16.682,3.386,48.088,2.034,81.54
						C897.839,2247.426,887.995,2256.011,876.203,2256.013z M777.144,2149.991c-3.406,0.182-6.531,1.643-8.581,4.008
						c-1.686,1.946-2.493,4.353-2.275,6.775l6.501,72.402c0.694,7.738,7.936,13.736,16.841,13.954l86.144,2.106
						c8.257,0.179,15.442-5.572,15.736-12.881c1.329-32.929,2.189-63.796-1.829-79.594c-1.795-7.043-9.116-12.17-17.403-12.19
						c-0.146,0-0.291,0-0.433,0c-15.802,0-43.76,1.964-66.265,3.545C794.722,2148.879,784.461,2149.6,777.144,2149.991
						L777.144,2149.991z"/>
					<path style="opacity:0.6;fill:#FFFFFF;" d="M786.297,2157.513c18.117-0.969,57.514-4.379,76.175-4.335
						c7.907,0.019,14.77,4.898,16.522,11.781c3.404,13.367,2.533,39.898,1.544,64.382c-0.296,7.333-7.12,13.088-15.345,12.887
						l-68.84-1.682c-8.466-0.207-15.409-6.084-16.086-13.615l-5.196-57.857C774.533,2163.09,779.58,2157.872,786.297,2157.513z"/>
					<g style="opacity:0.6;">
						<path style="fill:#FFFFFF;" d="M949.513,2182.044c-2.2-0.039-3.566,1.676-3.037,3.811l8.792,35.457
							c0.53,2.135,2.763,3.89,4.963,3.9l801.806,3.501c2.2,0.01,3.987-1.782,3.972-3.982l-0.17-24.151
							c-0.016-2.2-1.828-4.032-4.027-4.071L949.513,2182.044z"/>
					</g>
				</g>
			</g>
			
				<linearGradient id="SVGID_00000076583853834587629590000010640293625185879461_" gradientUnits="userSpaceOnUse" x1="1810.3859" y1="337.656" x2="1251.723" y2="1072.5638" gradientTransform="matrix(0.9882 0.1531 -0.1531 0.9882 -253.6832 -287.7768)">
				<stop  offset="0" style="stop-color:#09005D"/>
				<stop  offset="1" style="stop-color:#1A0F91"/>
			</linearGradient>
			<path style="fill:url(#SVGID_00000076583853834587629590000010640293625185879461_);" d="M1310.621,472.074
				c-43.19-31.007-81.145-30.968-107.975-23.482c-24.474,6.829-40.616,30.12-38.673,55.455l9.655,125.909l136.901,14.198
				C1310.529,644.154,1395.324,532.884,1310.621,472.074z M1248.834,572.62c-18.877-0.28-33.953-15.81-33.673-34.688
				c0.28-18.878,15.81-33.954,34.687-33.675c18.878,0.28,33.954,15.81,33.674,34.688
				C1283.242,557.824,1267.712,572.9,1248.834,572.62z"/>
			<path style="fill:#91B3FA;" d="M1188.156,577.343c-1.752,0-3.237-1.351-3.373-3.126l-1.538-20.05
				c-0.142-1.865,1.253-3.493,3.118-3.636c1.809-0.147,3.492,1.253,3.634,3.116l1.538,20.05c0.142,1.865-1.253,3.493-3.118,3.636
				C1188.332,577.34,1188.242,577.343,1188.156,577.343z M1185.141,538.051c-1.753,0-3.237-1.351-3.373-3.126l-1.167-15.225
				c-1.852-24.173,13.67-46.423,36.909-52.908c16.434-4.585,33.318-5.031,50.165-1.318c1.828,0.402,2.982,2.209,2.579,4.036
				c-0.403,1.825-2.209,2.984-4.034,2.577c-15.763-3.474-31.535-3.06-46.891,1.228c-20.134,5.616-33.582,24.906-31.975,45.865
				l1.167,15.225c0.142,1.865-1.253,3.493-3.118,3.636C1185.316,538.047,1185.227,538.051,1185.141,538.051z"/>
			
				<linearGradient id="SVGID_00000180342790942951843140000001438240569023746488_" gradientUnits="userSpaceOnUse" x1="1797.2175" y1="354.655" x2="1241.4644" y2="1085.7354" gradientTransform="matrix(0.9999 0.0148 -0.0148 0.9999 -283.4461 -40.2419)">
				<stop  offset="0" style="stop-color:#09005D"/>
				<stop  offset="1" style="stop-color:#1A0F91"/>
			</linearGradient>
			<path style="fill:url(#SVGID_00000180342790942951843140000001438240569023746488_);" d="M985.333,708.44l0.937-63.217
				c0.324-21.823,18.67-39.033,40.469-37.962l435.635,21.397c19.333,0.95,34.771,16.45,35.643,35.787l2.742,60.797L985.333,708.44z"
				/>
			<path style="fill:#91B3FA;" d="M1149.059,632.977c-0.016,0-0.033,0-0.05,0l-18.745-0.278c-1.872-0.028-3.363-1.566-3.336-3.436
				c0.026-1.87,1.607-3.421,3.436-3.336l18.745,0.278c1.872,0.028,3.363,1.566,3.336,3.436
				C1152.418,631.494,1150.907,632.977,1149.059,632.977z"/>
			<path style="fill:#91B3FA;" d="M1009.268,689.016h-0.05c-1.871-0.028-3.363-1.566-3.336-3.435l0.377-25.572
				c0.294-19.621,16.351-35.384,35.906-35.384c0.179,0,0.357,0.002,0.539,0.003l68.913,1.022c1.872,0.028,3.363,1.566,3.336,3.436
				c-0.03,1.87-1.709,3.285-3.436,3.336l-68.913-1.022c-0.146-0.003-0.294-0.003-0.44-0.003c-15.868,0-28.896,12.79-29.134,28.713
				l-0.377,25.57C1012.628,687.533,1011.117,689.016,1009.268,689.016z"/>
			<path style="fill:#7D97F4;" d="M849.106,683.277l762.176,11.282c27.405,0.406,50.543,20.475,54.817,47.549l0.59,3.736
				c4.682,29.654-18.492,56.37-48.51,55.925l-781.948-11.596c-17.965-0.267-32.058-15.499-30.93-33.431l2.201-34.973
				C808.879,699.894,827.19,682.953,849.106,683.277z"/>
		</g>
		<g>
			
				<linearGradient id="SVGID_00000098943346268794072890000016155260738173923469_" gradientUnits="userSpaceOnUse" x1="544.7065" y1="708.7567" x2="224.0529" y2="2962.125" gradientTransform="matrix(-1 0 0 1 2081.1826 0)">
				<stop  offset="0" style="stop-color:#4F52FF"/>
				<stop  offset="1" style="stop-color:#4042E2"/>
			</linearGradient>
			<path style="fill:url(#SVGID_00000098943346268794072890000016155260738173923469_);" d="M2229.237,3119.668
				c0,0,667.598,152.259,878.418-152.26c210.821-304.518-140.547-808.145-288.902-1022.869
				c-148.355-214.724-398.217-523.147-480.202-776.912c-81.986-253.765-191.3-495.818-495.819-511.435
				c-304.518-15.616-448.969,113.219-534.859,484.106c-85.89,370.888-214.724,585.612-445.065,804.241
				C632.467,2163.167,386.51,2424.741,472.4,2705.835c85.89,281.094,363.079,413.833,671.502,409.929
				S2229.237,3119.668,2229.237,3119.668z"/>
			<path style="fill:#91B3FA;" d="M1272.981,1465.699c0,0-0.714,6.277-2.057,18.047c-1.471,11.774-3.485,29.056-6.848,50.954
				c-3.416,21.885-7.982,48.436-15.125,78.521c-3.459,15.068-7.833,30.943-12.78,47.588c-5.115,16.597-11.11,33.872-18.183,51.603
				c-7.036,17.698-15.697,35.83-25.269,53.852c-9.883,18.223-21.01,36.331-33.261,54.473c-12.446,17.988-25.924,35.975-40.45,53.731
				c-14.619,17.678-30.14,35.223-46.389,52.606c-32.61,34.66-67.991,68.729-104.152,102.903
				c-36.204,34.133-73,68.663-107.908,104.898c-34.868,36.233-67.746,74.35-95.697,114.92
				c-13.861,20.34-26.641,41.151-37.857,62.495c-11.203,21.315-20.977,43.108-29.67,64.889
				c-8.561,21.846-16.143,43.675-22.789,65.302c-6.6,21.656-12.258,43.052-17.271,64.099c-4.983,20.894-9.133,41.455-11.917,61.413
				c-2.725,19.968-4.269,39.385-4.143,57.991c-0.06,9.312,0.552,18.394,1.26,27.257c0.513,4.368,0.903,8.886,1.554,12.986
				c0.734,4.337,1.283,8.778,2.139,12.877c3.105,16.4,7.576,32.095,12.992,46.175c5.396,14.146,11.566,26.949,17.833,38.497
				c6.458,11.44,13.045,21.597,19.536,30.389c12.906,17.667,25.134,29.929,33.648,37.999c4.16,4.162,7.714,6.948,9.963,8.996
				c2.295,1.999,3.479,3.031,3.479,3.031l-2.086,2.666c0,0-1.257-0.976-3.684-2.868c-2.391-1.942-6.154-4.577-10.604-8.558
				c-9.159-7.64-22.058-19.684-36.016-37.19c-7.01-8.721-14.192-18.848-21.315-30.342c-6.987-11.572-13.765-24.586-19.754-39.063
				c-6.035-14.507-11.156-30.294-14.903-47.758c-0.992-4.338-1.604-8.58-2.437-12.958c-0.833-4.63-1.296-9.047-1.938-13.671
				c-0.939-9.194-1.769-18.633-1.918-28.28c-1.078-38.661,4.976-80.147,14.681-122.836c9.917-42.477,22.571-87.039,40.324-131.473
				c8.951-22.185,18.99-44.372,30.553-66.183c11.547-21.785,24.707-43.052,38.935-63.761
				c28.675-41.306,62.194-79.855,97.512-116.299c70.732-72.909,148.113-138.181,213.439-206.327
				c16.292-17.057,31.836-34.253,46.468-51.567c14.542-17.388,28.024-34.986,40.48-52.582
				c12.251-17.721,23.444-35.525,33.241-53.125c9.731-17.987,18.464-35.349,25.745-52.765c7.278-17.354,13.501-34.311,18.851-50.64
				c5.181-16.382,9.797-32.037,13.491-46.928c7.625-29.724,12.602-56.07,16.431-77.798c3.865-21.732,6.283-38.921,8.025-50.616
				c1.617-11.735,2.48-17.993,2.48-17.993L1272.981,1465.699z"/>
			<g>
				
					<linearGradient id="SVGID_00000129172285514615219480000002842377401946382517_" gradientUnits="userSpaceOnUse" x1="126.0808" y1="2914.4802" x2="362.3484" y2="1652.4707" gradientTransform="matrix(-1 0 0 1 2081.1826 0)">
					<stop  offset="0" style="stop-color:#FEBBBA"/>
					<stop  offset="1" style="stop-color:#FF928E"/>
				</linearGradient>
				<path style="fill:url(#SVGID_00000129172285514615219480000002842377401946382517_);" d="M1173.76,2579.292
					c65.001-26.072,140.148-51.546,374.517-121.251c87.419-17.219,151.473-92.365,154.63-181.408l14.13-398.464h258.434
					l14.13,398.464c3.158,89.043,67.212,164.189,154.631,181.408c190.547,69.705,356.146,119.841,483.771,212.401
					c-53.048,73.363-780.832,18.623-988.615,18.623C1448.342,2689.065,1234.281,2628.722,1173.76,2579.292z"/>
				
					<linearGradient id="SVGID_00000127005043960989355980000006832955340061257386_" gradientUnits="userSpaceOnUse" x1="2219.2747" y1="1988.761" x2="1929.7875" y2="2806.4338">
					<stop  offset="0" style="stop-color:#FF928E"/>
					<stop  offset="1" style="stop-color:#FE7062"/>
				</linearGradient>
				<path style="fill:url(#SVGID_00000127005043960989355980000006832955340061257386_);" d="M1116.404,2713.175
					c15.106-49.282,56.116-173.954,76.547-128.595c44.084,97.871,1344.019,151.239,1344.01,26.646
					c23.393,40.028,4.932-9.658,39.143,101.948c40.473,132.037,81.971,314.221,66.965,472.862H1049.44
					C1034.433,3027.397,1075.932,2845.212,1116.404,2713.175z"/>
			</g>
			<g>
				
					<linearGradient id="SVGID_00000134213635810325310290000013514187601147280788_" gradientUnits="userSpaceOnUse" x1="246.8275" y1="1279.1907" x2="199.0151" y2="2574.4639" gradientTransform="matrix(-1 0 0 1 2081.1826 0)">
					<stop  offset="0" style="stop-color:#FEBBBA"/>
					<stop  offset="1" style="stop-color:#FF928E"/>
				</linearGradient>
				<path style="fill:url(#SVGID_00000134213635810325310290000013514187601147280788_);" d="M1434.756,1347.214
					c0,283.536,180.035,630.509,402.12,630.509s402.121-346.973,402.121-630.509S2058.962,950.95,1836.877,950.95
					S1434.756,1063.679,1434.756,1347.214z"/>
				
					<linearGradient id="SVGID_00000016033476265299116640000010788630420350178234_" gradientUnits="userSpaceOnUse" x1="646.4531" y1="1293.9419" x2="598.6406" y2="2589.2166" gradientTransform="matrix(-1 0 0 1 2081.1826 0)">
					<stop  offset="0" style="stop-color:#FEBBBA"/>
					<stop  offset="1" style="stop-color:#FF928E"/>
				</linearGradient>
				<path style="fill:url(#SVGID_00000016033476265299116640000010788630420350178234_);" d="M1487.461,1483.857
					c0,0-58.561-105.41-113.219-54.657c-54.657,50.753,81.986,230.341,132.739,206.916
					C1557.735,1612.692,1487.461,1483.857,1487.461,1483.857z"/>
				
					<linearGradient id="SVGID_00000127750543840464229810000009136975592709553064_" gradientUnits="userSpaceOnUse" x1="-144.9886" y1="1264.7278" x2="-192.8011" y2="2560.0017" gradientTransform="matrix(-1 0 0 1 2081.1826 0)">
					<stop  offset="0" style="stop-color:#FEBBBA"/>
					<stop  offset="1" style="stop-color:#FF928E"/>
				</linearGradient>
				<path style="fill:url(#SVGID_00000127750543840464229810000009136975592709553064_);" d="M2192.023,1483.857
					c0,0,58.561-105.41,113.218-54.657c54.657,50.753-81.985,230.341-132.739,206.916
					C2121.75,1612.692,2192.023,1483.857,2192.023,1483.857z"/>
			</g>
			
				<linearGradient id="SVGID_00000140707549168544374760000007488668125477578676_" gradientUnits="userSpaceOnUse" x1="323.7488" y1="677.3136" x2="3.0948" y2="2930.6841" gradientTransform="matrix(-1 0 0 1 2081.1826 0)">
				<stop  offset="0" style="stop-color:#4F52FF"/>
				<stop  offset="1" style="stop-color:#4042E2"/>
			</linearGradient>
			<path style="fill:url(#SVGID_00000140707549168544374760000007488668125477578676_);" d="M2252.661,1401.871
				c0,0-62.466-136.643-210.82-148.355c-118.703-9.371-317.385-56.233-410.065-122.588c-31.198-22.336-74.724-14.05-94.824,18.634
				c-41.688,67.786-96.245,172.351-102.195,263.258c0,0-91.746-241.29,37.089-448.207
				C1600.68,757.698,2389.304,656.192,2252.661,1401.871z"/>
			<path style="fill:#91B3FA;" d="M2395.838,1528.684c0,0,2.721,6.273,7.827,18.035c1.273,2.94,2.698,6.224,4.266,9.839
				c1.574,3.612,3.227,7.59,5.32,11.718c4.044,8.327,8.693,17.899,13.901,28.619c5.592,10.537,11.785,22.203,18.527,34.905
				c3.598,6.225,7.344,12.704,11.226,19.426c3.892,6.717,7.833,13.723,12.321,20.722c4.388,7.053,8.921,14.332,13.583,21.825
				c4.722,7.455,9.86,14.951,14.979,22.738c2.576,3.881,5.188,7.813,7.83,11.793c2.744,3.913,5.522,7.874,8.333,11.881
				c5.674,7.977,11.249,16.292,17.363,24.499c6.058,8.241,12.241,16.655,18.547,25.229c6.454,8.464,13.028,17.088,19.717,25.859
				c13.471,17.477,27.528,35.448,42.275,53.705c29.399,36.587,61.143,74.616,93.862,114.133
				c32.722,39.535,66.357,80.559,99.01,123.677c32.596,43.086,64.059,88.246,92.681,135.298
				c28.526,47.071,54.371,96.04,74.498,146.641c20.243,50.511,35.159,102.404,43.452,153.761c0.939,6.435,1.875,12.844,2.804,19.223
				c0.466,3.19,0.929,6.373,1.392,9.549c0.337,3.187,0.675,6.365,1.012,9.537c0.704,6.194,1.127,12.673,1.637,19.012
				c0.443,6.348,0.741,12.614,1.035,18.877c0.942,25.036,0.218,49.572-1.683,73.342c-3.839,47.581-13.412,91.889-25.821,131.592
				c-6.326,19.876-13.904,38.635-23.064,55.599c-4.616,8.535-9.424,16.381-14.999,24.067c-2.744,3.539-5.155,6.982-8.111,10.42
				c-2.956,3.377-5.727,6.927-8.74,9.934c-23.517,25.058-48.419,41.475-69.059,53.838c-10.35,6.214-19.833,11.285-28.09,15.631
				c-8.253,4.364-15.353,7.893-21.126,10.71c-11.55,5.609-17.71,8.601-17.71,8.601l-1.587-2.99c0,0,5.896-3.46,16.953-9.949
				c10.958-6.62,27.283-15.951,46.944-29.268c9.864-6.598,20.511-14.274,31.426-23.344c10.925-9.037,22.194-19.426,32.732-31.737
				c2.771-3.006,5.063-6.268,7.652-9.458c2.546-3.17,4.973-7.012,7.552-10.546c4.616-6.797,9.143-14.64,13.16-22.684
				c8.171-16.195,14.714-34.298,20.438-53.621c11.388-38.79,19.635-82.075,23.312-128.237c3.346-46.197,2.219-95.26-6.183-145.172
				c-7.949-49.918-22.349-100.519-42.047-149.995c-19.681-49.508-44.577-97.883-72.461-144.491
				c-27.881-46.642-58.878-91.461-90.753-134.604c-31.806-43.158-64.846-84.548-97.003-124.435
				c-64.376-79.75-125.046-154.173-171.64-222.048c-5.965-8.375-11.405-16.867-16.937-25.005c-2.738-4.088-5.446-8.129-8.124-12.121
				c-2.573-4.061-5.115-8.072-7.628-12.033c-4.983-7.944-9.986-15.586-14.579-23.188c-4.533-7.638-8.935-15.058-13.2-22.247
				c-4.361-7.13-8.184-14.27-11.953-21.11c-3.763-6.842-7.39-13.438-10.875-19.775c-6.514-12.923-12.565-24.75-17.839-35.529
				c-4.94-10.953-9.351-20.733-13.187-29.241c-1.99-4.225-3.528-8.238-4.996-11.895c-1.465-3.657-2.794-6.98-3.988-9.956
				c-4.765-11.902-7.308-18.25-7.308-18.25L2395.838,1528.684z"/>
			<path style="fill:#91B3FA;" d="M2495.609,1811.878c0,0,1.872,4.651,5.383,13.374c0.876,2.18,1.858,4.615,2.936,7.296
				c1.157,2.633,2.424,5.508,3.789,8.615c2.728,6.212,5.84,13.35,9.682,21.216c7.294,15.89,17.148,34.721,29.059,55.949
				c11.947,21.216,26.43,44.586,43.112,69.495c16.576,24.981,35.308,51.542,55.799,79.176c20.458,27.661,42.579,56.46,65.385,86.385
				c22.849,29.891,46.127,61.118,68.847,93.596c11.259,16.314,22.568,32.803,33.317,49.785c5.502,8.405,10.671,17.06,15.984,25.628
				c5.105,8.702,10.307,17.361,15.187,26.214c9.946,17.597,19.142,35.637,27.852,53.828c2.186,4.543,4.173,9.18,6.266,13.758
				l3.098,6.882l0.774,1.719l0.78,1.849l1.418,3.448c1.888,4.596,3.776,9.186,5.661,13.767c1.901,4.558,3.542,9.404,5.321,14.079
				c14.073,37.557,23.745,75.844,29.412,113.595c1.633,9.399,2.417,18.845,3.472,28.157c0.608,4.649,0.681,9.331,0.995,13.962
				c0.251,4.637,0.499,9.25,0.747,13.837c0.297,18.384,0.086,36.404-1.697,53.852c-3.181,34.92-10.975,67.453-21.599,96.122
				c-0.641,1.801-1.283,3.592-1.918,5.373c-0.698,2.051-1.442,3.51-2.156,5.279c-1.491,3.398-2.738,6.713-4.427,10.083
				c-1.624,3.333-3.131,6.696-4.798,9.881c-1.696,3.16-3.369,6.281-5.023,9.363c-6.944,12.148-14.41,23.159-22.194,32.906
				c-7.87,9.694-16.087,18.042-24.135,25.238c-8.23,6.999-16.196,12.966-23.947,17.482c-15.399,9.222-28.91,13.736-38.221,15.834
				c-2.285,0.7-4.394,0.954-6.187,1.268c-1.796,0.3-3.307,0.552-4.52,0.754c-2.43,0.404-3.684,0.612-3.684,0.612l-0.493-3.349
				c0,0,1.204-0.278,3.542-0.816c1.167-0.268,2.615-0.601,4.335-0.996c1.716-0.408,3.73-0.77,5.902-1.586
				c2.192-0.729,4.639-1.543,7.334-2.439c2.698-0.863,5.466-2.312,8.544-3.587c3.121-1.196,6.256-2.967,9.625-4.781
				c3.436-1.689,6.832-3.941,10.422-6.295c7.222-4.649,14.592-10.722,22.161-17.765c7.397-7.248,14.903-15.59,22.022-25.219
				c7.03-9.688,13.944-20.415,20.197-32.31c1.491-3.01,3.002-6.058,4.53-9.143c1.491-3.093,2.787-6.274,4.219-9.457
				c1.455-3.108,2.672-6.658,4.027-10.046c0.612-1.663,1.452-3.562,1.885-5.058c0.572-1.738,1.151-3.484,1.729-5.24
				c9.695-27.936,16.212-59.524,18.854-93.292c1.491-16.876,1.438-34.323,0.906-52.109c-1.084-17.773-2.569-35.929-5.548-54.222
				c-0.734-4.573-1.471-9.165-2.209-13.774c-0.929-4.578-1.862-9.175-2.797-13.787c-1.686-9.263-4.299-18.402-6.474-27.69
				c-5.052-18.375-10.601-37.01-17.393-55.152c-1.719-4.554-3.22-9.096-5.122-13.687c-1.868-4.587-3.743-9.182-5.621-13.783
				l-1.405-3.452l-0.668-1.588l-0.754-1.686l-3.016-6.75c-2.037-4.491-3.965-9.037-6.097-13.499
				c-8.495-17.864-17.466-35.604-27.21-52.955c-19.33-34.78-40.83-68.419-62.998-100.889c-22.29-32.404-45.205-63.687-67.418-93.999
				c-22.27-30.271-43.945-59.499-64.01-87.61c-20.084-28.091-38.522-55.098-54.721-80.568
				c-16.097-25.537-30.031-49.48-41.475-71.187c-11.411-21.72-20.802-40.952-27.706-57.16c-3.631-8.017-6.464-15.377-8.997-21.74
				c-1.26-3.182-2.427-6.125-3.495-8.823c-0.979-2.719-1.868-5.188-2.662-7.4c-3.184-8.846-4.884-13.564-4.884-13.564
				L2495.609,1811.878z"/>
			<path style="fill:#91B3FA;" d="M1562.793,861.374c0,0-0.261,0.84-0.771,2.467c-0.456,1.623-1.399,4.051-2.05,7.177
				c-1.6,6.186-3.389,15.683-3.346,27.778c-0.069,6.05,0.466,12.742,1.458,19.962c1.161,7.199,2.91,14.907,5.509,22.921
				c5.089,16.007,14.076,33.214,26.87,49.435c12.75,16.378,29.393,31.882,48.792,45.814c9.741,6.899,20.061,13.654,31.069,19.672
				c5.539,3.093,11.1,6.395,16.837,9.133c5.747,2.818,11.375,5.917,17.413,8.495c23.758,10.954,49.14,20.496,75.414,28.789
				c26.278,8.307,53.425,15.425,80.715,22.102c27.379,6.554,54.758,13.109,81.71,19.561c13.501,3.287,26.813,6.716,39.99,10.438
				c13.035,3.622,26.03,7.582,38.651,11.72c25.213,8.302,49.242,17.532,71.333,27.892c22.112,10.319,42.186,21.842,59.985,33.564
				c4.371,3.057,8.647,6.05,12.826,8.976c4.206,2.887,7.989,6.169,11.848,9.116c3.829,2.994,7.575,5.891,10.942,9.047
				c3.426,3.075,6.755,6.063,9.979,8.957c3.161,2.96,5.982,6.085,8.832,8.957c2.768,2.954,5.641,5.603,8.025,8.503
				c4.771,5.789,9.387,10.902,13.121,15.87c3.631,5.041,6.875,9.542,9.695,13.458c2.705,3.991,4.659,7.618,6.415,10.436
				c3.416,5.697,5.238,8.736,5.238,8.736l-2.933,1.692c0,0-1.934-2.912-5.565-8.372c-1.862-2.694-3.938-6.164-6.775-9.963
				c-2.906-3.749-6.243-8.058-9.983-12.884c-3.826-4.746-8.541-9.611-13.398-15.114c-2.427-2.757-5.347-5.261-8.154-8.059
				c-2.89-2.717-5.744-5.675-8.941-8.466c-12.787-11.162-27.802-23.109-45.449-34.346c-17.667-11.185-37.689-21.874-59.509-31.839
				c-21.794-10.036-45.549-18.973-70.514-27.001c-12.486-3.995-25.186-7.776-38.347-11.335
				c-12.995-3.538-26.321-6.908-39.716-10.289c-26.919-6.569-54.265-13.243-81.614-19.916c-27.359-6.822-54.678-14.11-81.214-22.625
				c-26.526-8.5-52.291-18.238-76.28-29.798c-6.071-2.689-11.884-5.977-17.733-8.949c-5.925-2.939-11.365-6.273-16.874-9.445
				c-11.2-6.322-21.622-13.341-31.522-20.552c-19.691-14.544-36.661-30.738-49.626-47.886
				c-12.988-17.245-21.787-35.091-26.757-51.885c-2.513-8.365-4.153-16.389-5.188-23.871c-0.87-7.506-1.27-14.447-1.068-20.716
				c0.294-12.567,2.43-22.226,4.302-28.731c0.813-3.316,1.786-5.596,2.301-7.238c0.556-1.612,0.84-2.444,0.84-2.444
				L1562.793,861.374z"/>
			<path style="fill:#91B3FA;" d="M1616.952,878.992c0,0-0.086,0.853-0.255,2.506c-0.083,0.827-0.188,1.853-0.314,3.073
				c-0.043,1.189-0.093,2.566-0.152,4.126c-0.106,6.231,0.288,15.585,3.379,26.919c2.949,11.333,8.673,24.651,18.167,37.959
				c1.18,1.663,2.47,3.289,3.73,4.974c1.336,1.603,2.692,3.23,4.064,4.881c3.006,3.37,5.978,6.558,9.311,9.701
				c6.643,6.33,14.116,12.487,22.422,18.249c16.593,11.606,36.207,21.666,57.846,30.792c21.424,9.036,44.858,17.079,69.396,24.129
				c24.538,7.152,50.29,13.298,76.608,19.075c26.41,5.663,53.237,11.415,80.063,17.167c26.889,5.851,53.61,12.724,79.633,20.649
				c13.005,3.978,25.788,8.362,38.314,13.002c12.456,4.828,24.73,9.725,36.465,15.352c23.639,10.894,45.377,23.818,64.555,38.158
				c19.221,14.309,35.559,30.102,49.156,45.919c13.61,15.823,24.224,31.882,32.078,46.895c1.872,3.803,3.928,7.358,5.463,11.011
				c1.577,3.629,3.098,7.127,4.556,10.489c1.313,3.422,2.447,6.752,3.594,9.906c0.552,1.585,1.147,3.113,1.627,4.638
				c0.437,1.54,0.863,3.041,1.276,4.504c0.827,2.922,1.607,5.687,2.344,8.289c0.641,2.625,1.068,5.131,1.557,7.436
				c0.463,2.31,0.893,4.447,1.286,6.405c0.38,1.959,0.513,3.778,0.744,5.384c0.807,6.44,1.24,9.875,1.24,9.875l-3.366,0.371
				c0,0-0.579-3.35-1.657-9.63c-0.301-1.563-0.506-3.331-0.966-5.232c-0.476-1.898-0.992-3.97-1.547-6.208
				c-0.575-2.233-1.124-4.648-1.822-7.193c-0.807-2.516-1.663-5.189-2.566-8.014c-0.45-1.411-0.913-2.86-1.389-4.346
				c-0.519-1.471-1.151-2.944-1.743-4.47c-1.227-3.037-2.44-6.241-3.826-9.528c-1.534-3.224-3.128-6.58-4.785-10.06
				c-1.607-3.5-3.74-6.899-5.677-10.531c-8.204-14.294-18.914-29.608-32.405-44.759c-13.524-15.091-29.763-30.147-48.667-43.617
				c-4.771-3.273-9.397-6.708-14.629-9.872c-2.526-1.589-5.069-3.188-7.628-4.795c-2.612-1.513-5.241-3.034-7.886-4.563
				c-5.214-3.18-10.783-5.889-16.239-8.903c-5.625-2.711-11.183-5.677-17.012-8.226c-11.5-5.422-23.57-10.137-35.821-14.79
				c-12.327-4.471-24.925-8.696-37.775-12.53c-25.682-7.717-52.258-14.052-78.906-20.196c-26.787-5.916-53.577-11.833-79.944-17.657
				c-26.4-5.966-52.344-12.323-77.153-19.72c-24.866-7.281-48.323-16.077-70.199-25.705c-21.609-9.591-41.706-20.335-58.636-32.662
				c-8.491-6.125-16.186-12.666-22.882-19.52c-3.389-3.394-6.544-6.998-9.345-10.346c-1.415-1.805-2.807-3.583-4.179-5.336
				c-1.27-1.808-2.566-3.553-3.753-5.334c-9.516-14.243-15.068-28.338-17.796-40.292c-2.903-11.969-2.807-21.735-2.46-28.294
				c0.132-1.65,0.248-3.107,0.347-4.365c0.175-1.214,0.321-2.235,0.44-3.057c0.235-1.645,0.357-2.494,0.357-2.494L1616.952,878.992z
				"/>
			<path style="opacity:0.6;fill:#FFFFFF;" d="M850.022,2904.556c-10.009-10.462-22.591-18.33-36.379-22.75l1.032-3.224
				c14.324,4.591,27.395,12.764,37.795,23.632L850.022,2904.556z"/>
		</g>
		<g>
			<rect x="2499.237" y="2140.312" style="fill:#7D97F4;" width="463.003" height="121.9"/>
			<path style="fill:#91B3FA;" d="M3102.804,3236.257h-744.13c-19.972,0-36.162-16.19-36.162-36.162v-955.033
				c0-19.972,16.19-36.162,36.162-36.162h744.13c19.972,0,36.162,16.19,36.162,36.162v955.033
				C3138.966,3220.067,3122.775,3236.257,3102.804,3236.257z"/>
			<path style="opacity:0.28;fill:#FFFFFF;" d="M3023.624,3075.89h-585.77c-6.628,0-12.001-5.373-12.001-12.001V2434.53
				c0-6.628,5.373-12.001,12.001-12.001h585.77c6.628,0,12.001,5.373,12.001,12.001v629.359
				C3035.625,3070.517,3030.252,3075.89,3023.624,3075.89z"/>
			
				<linearGradient id="SVGID_00000065034825835798147840000002742771380517975468_" gradientUnits="userSpaceOnUse" x1="2834.3992" y1="1336.0383" x2="2778.9775" y2="1737.1842">
				<stop  offset="0" style="stop-color:#E1473D"/>
				<stop  offset="1" style="stop-color:#E9605A"/>
			</linearGradient>
			<path style="fill:url(#SVGID_00000065034825835798147840000002742771380517975468_);" d="M3032.528,2179.494H2428.95
				c-3.5,0-6.337-2.837-6.337-6.337v-173.242c0-6.616,5.363-11.979,11.979-11.979h592.294c6.615,0,11.979,5.363,11.979,11.979
				v173.242C3038.865,2176.657,3036.027,2179.494,3032.528,2179.494z"/>
			<g>
				<rect x="2469.315" y="2015.276" style="opacity:0.6;fill:#FFFFFF;" width="22.128" height="139.056"/>
				<rect x="2514.834" y="2015.276" style="opacity:0.6;fill:#FFFFFF;" width="22.128" height="139.056"/>
				<rect x="2560.355" y="2015.276" style="opacity:0.6;fill:#FFFFFF;" width="22.128" height="139.056"/>
				<rect x="2605.875" y="2015.276" style="opacity:0.6;fill:#FFFFFF;" width="22.128" height="139.056"/>
				<rect x="2651.395" y="2015.276" style="opacity:0.6;fill:#FFFFFF;" width="22.128" height="139.056"/>
				<rect x="2696.915" y="2015.276" style="opacity:0.6;fill:#FFFFFF;" width="22.128" height="139.056"/>
				<rect x="2742.435" y="2015.276" style="opacity:0.6;fill:#FFFFFF;" width="22.128" height="139.056"/>
				<rect x="2787.955" y="2015.276" style="opacity:0.6;fill:#FFFFFF;" width="22.128" height="139.056"/>
				<rect x="2833.475" y="2015.276" style="opacity:0.6;fill:#FFFFFF;" width="22.128" height="139.056"/>
				<rect x="2878.995" y="2015.276" style="opacity:0.6;fill:#FFFFFF;" width="22.128" height="139.056"/>
				<rect x="2924.515" y="2015.276" style="opacity:0.6;fill:#FFFFFF;" width="22.128" height="139.056"/>
				<rect x="2970.035" y="2015.276" style="opacity:0.6;fill:#FFFFFF;" width="22.128" height="139.056"/>
			</g>
		</g>
		<g>
			<g>
				<path style="fill:#7D97F4;" d="M1001.869,3108.271c-28.117-3.674-58.967-5.705-91.334-5.705
					c-32.367,0-63.216,2.031-91.333,5.705H673.085v68.665c0,41.073,106.31,74.371,237.45,74.371
					c131.14,0,237.451-33.297,237.451-74.371v-68.665H1001.869z"/>
				<ellipse style="fill:#BDD0FB;" cx="910.535" cy="3108.271" rx="237.45" ry="74.37"/>
				<path style="opacity:0.3;fill:#D8DEE8;" d="M910.535,3162.329c-61.421,0-118.894-7.407-161.832-20.854
					c-45.146-14.14-55.306-29.084-55.306-33.204c0-4.12,10.16-19.065,55.306-33.204c42.938-13.447,100.411-20.854,161.832-20.854
					c61.421,0,118.894,7.407,161.832,20.854c45.146,14.139,55.306,29.084,55.306,33.204c0,4.12-10.16,19.064-55.306,33.204
					C1029.429,3154.922,971.956,3162.329,910.535,3162.329z"/>
				<path style="opacity:0.3;fill:#D8DEE8;" d="M910.535,3162.321c-61.421,0-118.894-7.95-161.832-22.384
					c-45.146-15.177-55.306-31.218-55.306-35.641s10.16-20.464,55.306-35.641c42.938-14.434,100.411-22.384,161.832-22.384
					c61.421,0,118.894,7.95,161.832,22.384c45.146,15.177,55.306,31.218,55.306,35.641s-10.16,20.464-55.306,35.641
					C1029.429,3154.371,971.956,3162.321,910.535,3162.321z"/>
				<path style="fill:#D8DEE8;" d="M779.56,3133.15c-5.773,0-10.9-3.463-11.975-8.408c-1.21-5.568,3.177-10.908,9.798-11.926
					l247.304-38.01c6.613-1.019,12.97,2.673,14.18,8.24c1.21,5.569-3.177,10.909-9.798,11.926l-247.304,38.01
					C781.024,3133.095,780.286,3133.15,779.56,3133.15z"/>
			</g>
			<g>
				<path style="fill:#7D97F4;" d="M983.287,3020.276c-28.117-3.674-58.966-5.705-91.334-5.705c-32.367,0-63.216,2.031-91.333,5.705
					H654.503v68.666c0,41.073,106.31,74.37,237.45,74.37c131.14,0,237.451-33.297,237.451-74.37v-68.666H983.287z"/>
				<ellipse style="fill:#BDD0FB;" cx="891.954" cy="3020.276" rx="237.45" ry="74.37"/>
				<path style="opacity:0.3;fill:#D8DEE8;" d="M891.954,3074.333c-61.421,0-118.894-7.407-161.832-20.854
					c-45.146-14.139-55.306-29.084-55.306-33.204s10.16-19.065,55.306-33.204c42.938-13.447,100.411-20.854,161.832-20.854
					c61.421,0,118.894,7.407,161.832,20.854c45.146,14.14,55.306,29.084,55.306,33.204s-10.16,19.065-55.306,33.204
					C1010.848,3066.927,953.375,3074.333,891.954,3074.333z"/>
				<path style="opacity:0.3;fill:#D8DEE8;" d="M891.954,3074.326c-61.421,0-118.894-7.951-161.832-22.384
					c-45.146-15.177-55.306-31.218-55.306-35.64c0-4.423,10.16-20.464,55.306-35.641c42.938-14.434,100.411-22.384,161.832-22.384
					c61.421,0,118.894,7.95,161.832,22.384c45.146,15.177,55.306,31.218,55.306,35.641c0,4.422-10.16,20.463-55.306,35.64
					C1010.848,3066.375,953.375,3074.326,891.954,3074.326z"/>
				<path style="fill:#D8DEE8;" d="M760.978,3045.155c-5.772,0-10.9-3.463-11.975-8.408c-1.21-5.569,3.177-10.909,9.798-11.927
					l247.304-38.01c6.613-1.019,12.97,2.673,14.18,8.24c1.21,5.569-3.177,10.909-9.798,11.926l-247.304,38.01
					C762.443,3045.099,761.705,3045.155,760.978,3045.155z"/>
			</g>
			<g>
				<path style="fill:#7D97F4;" d="M1001.869,2948.854c-28.117-3.674-58.967-5.705-91.334-5.705
					c-32.367,0-63.216,2.031-91.333,5.705H673.085v68.666c0,41.073,106.31,74.37,237.45,74.37
					c131.14,0,237.451-33.297,237.451-74.37v-68.666H1001.869z"/>
				<ellipse style="fill:#BDD0FB;" cx="910.535" cy="2948.854" rx="237.45" ry="74.37"/>
				<path style="opacity:0.3;fill:#D8DEE8;" d="M910.535,3002.912c-61.421,0-118.894-7.407-161.832-20.854
					c-45.146-14.139-55.306-29.084-55.306-33.204s10.16-19.065,55.306-33.204c42.938-13.447,100.411-20.854,161.832-20.854
					c61.421,0,118.894,7.407,161.832,20.854c45.146,14.14,55.306,29.084,55.306,33.204s-10.16,19.065-55.306,33.204
					C1029.429,2995.505,971.956,3002.912,910.535,3002.912z"/>
				<path style="opacity:0.3;fill:#D8DEE8;" d="M910.535,3002.904c-61.421,0-118.894-7.951-161.832-22.385
					c-45.146-15.177-55.306-31.218-55.306-35.64c0-4.422,10.16-20.464,55.306-35.641c42.938-14.434,100.411-22.384,161.832-22.384
					c61.421,0,118.894,7.95,161.832,22.384c45.146,15.177,55.306,31.218,55.306,35.641c0,4.422-10.16,20.463-55.306,35.64
					C1029.429,2994.953,971.956,3002.904,910.535,3002.904z"/>
				<path style="fill:#D8DEE8;" d="M779.56,2973.733c-5.773,0-10.9-3.463-11.975-8.408c-1.21-5.569,3.177-10.909,9.798-11.927
					l247.304-38.01c6.613-1.019,12.97,2.673,14.18,8.24c1.21,5.569-3.177,10.909-9.798,11.926l-247.304,38.01
					C781.024,2973.677,780.286,2973.733,779.56,2973.733z"/>
			</g>
			<g>
				<path style="fill:#7D97F4;" d="M983.287,2857.193c-28.117-3.674-58.967-5.705-91.334-5.705c-32.367,0-63.216,2.031-91.333,5.705
					H654.504v68.666c0,41.073,106.31,74.37,237.45,74.37c131.14,0,237.451-33.297,237.451-74.37v-68.666H983.287z"/>
				<ellipse style="fill:#BDD0FB;" cx="891.954" cy="2857.193" rx="237.45" ry="74.37"/>
				<path style="fill:#7D97F4;" d="M760.978,2882.072c-5.773,0-10.9-3.463-11.975-8.408c-1.21-5.569,3.177-10.909,9.798-11.926
					l247.304-38.01c6.613-1.019,12.97,2.673,14.18,8.24c1.21,5.569-3.177,10.909-9.798,11.926l-247.304,38.01
					C762.443,2882.016,761.705,2882.072,760.978,2882.072z"/>
			</g>
		</g>
		<g>
			<path style="fill:#FFFFFF;" d="M1417.856,2963.115l-196.306,22.732c40.726,75.923,58.319,160.121,56.837,245.937l168.324-19.492
				c68.523-7.935,118.096-70.492,110.161-139.016l0,0C1548.937,3004.752,1486.379,2955.18,1417.856,2963.115z"/>
			
				<linearGradient id="SVGID_00000049189963891489385760000002418426831016699017_" gradientUnits="userSpaceOnUse" x1="1656.344" y1="1983.4291" x2="1397.329" y2="2547.1667">
				<stop  offset="0" style="stop-color:#E1473D"/>
				<stop  offset="1" style="stop-color:#E9605A"/>
			</linearGradient>
			<path style="fill:url(#SVGID_00000049189963891489385760000002418426831016699017_);" d="M1221.55,2985.847l-163.868,18.976
				c-68.523,7.935-118.096,70.492-110.161,139.016l0,0c7.935,68.524,70.493,118.096,139.016,110.161l191.85-22.217
				C1279.869,3145.968,1262.276,3061.77,1221.55,2985.847z"/>
		</g>
		<g>
			
				<linearGradient id="SVGID_00000180331662921842863540000009728319608426896004_" gradientUnits="userSpaceOnUse" x1="2478.8704" y1="553.4784" x2="2742.6079" y2="1365.3766" gradientTransform="matrix(1 0 0 1 456.2916 498.9866)">
				<stop  offset="0" style="stop-color:#09005D"/>
				<stop  offset="1" style="stop-color:#1A0F91"/>
			</linearGradient>
			<polygon style="fill:url(#SVGID_00000180331662921842863540000009728319608426896004_);" points="3066.122,1768.904 
				3057.47,1768.904 3057.47,1158.951 3066.122,1115.693 			"/>
			
				<linearGradient id="SVGID_00000134241404951447185070000008735350741258588329_" gradientUnits="userSpaceOnUse" x1="4005.9426" y1="759.1875" x2="3308.4314" y2="1497.3293">
				<stop  offset="0" style="stop-color:#E1473D"/>
				<stop  offset="1" style="stop-color:#E9605A"/>
			</linearGradient>
			<path style="fill:url(#SVGID_00000134241404951447185070000008735350741258588329_);" d="M3105.055,1829.466h-86.518
				l5.593-139.819c0.5-12.515,10.792-22.402,23.316-22.402h28.701c12.525,0,22.815,9.887,23.316,22.402L3105.055,1829.466z"/>
			
				<linearGradient id="SVGID_00000127725326146652894920000009129465766730557572_" gradientUnits="userSpaceOnUse" x1="3045.113" y1="2982.0625" x2="3093.5205" y2="1302.7174">
				<stop  offset="0" style="stop-color:#FF928E"/>
				<stop  offset="1" style="stop-color:#FE7062"/>
			</linearGradient>
			<path style="fill:url(#SVGID_00000127725326146652894920000009129465766730557572_);" d="M3205.632,2960.69h-287.672V1846.315
				c0-14.083,11.417-25.5,25.5-25.5h236.672c14.083,0,25.5,11.417,25.5,25.5V2960.69z"/>
			
				<linearGradient id="SVGID_00000118395080265526158840000007019427391490223263_" gradientUnits="userSpaceOnUse" x1="-145.8373" y1="3847.9861" x2="981.0602" y2="3847.9861" gradientTransform="matrix(0 -1 1 0 -786.1905 2823.5044)">
				<stop  offset="0" style="stop-color:#FEBBBA"/>
				<stop  offset="1" style="stop-color:#FF928E"/>
			</linearGradient>
			<path style="fill:url(#SVGID_00000118395080265526158840000007019427391490223263_);" d="M2939.589,2969.342V1857.944
				c0-8.56,6.939-15.5,15.5-15.5h213.413c8.56,0,15.5,6.94,15.5,15.5v1111.397H2939.589z"/>
			<path style="opacity:0.44;fill:#FFFFFF;" d="M2939.957,2963.736V1852.338c0-8.56,6.94-15.5,15.5-15.5h213.413
				c8.56,0,15.5,6.94,15.5,15.5v1111.398H2939.957z"/>
			
				<linearGradient id="SVGID_00000173150360705898175820000015693158816815418539_" gradientUnits="userSpaceOnUse" x1="3119.4255" y1="1818.4692" x2="2906.3757" y2="2786.0742">
				<stop  offset="0" style="stop-color:#FF928E"/>
				<stop  offset="1" style="stop-color:#FE7062"/>
			</linearGradient>
			<path style="fill:url(#SVGID_00000173150360705898175820000015693158816815418539_);" d="M2939.589,2304.17v-446.226
				c0-8.56,6.939-15.5,15.5-15.5h213.413c8.56,0,15.5,6.94,15.5,15.5v446.226H2939.589z"/>
			
				<linearGradient id="SVGID_00000179636797326604919870000017799399846738969522_" gradientUnits="userSpaceOnUse" x1="4198.6943" y1="1089.0221" x2="3717.886" y2="1800.0763">
				<stop  offset="0" style="stop-color:#E1473D"/>
				<stop  offset="1" style="stop-color:#E9605A"/>
			</linearGradient>
			
				<rect x="3045.573" y="2311.804" style="fill:url(#SVGID_00000179636797326604919870000017799399846738969522_);" width="32.444" height="917.091"/>
			
				<linearGradient id="SVGID_00000012453289597800802500000003694676771929972150_" gradientUnits="userSpaceOnUse" x1="3301.5012" y1="1674.4679" x2="2834.2361" y2="2893.4199">
				<stop  offset="0" style="stop-color:#E1473D"/>
				<stop  offset="1" style="stop-color:#E9605A"/>
			</linearGradient>
			
				<rect x="2939.554" y="2281.523" style="fill:url(#SVGID_00000012453289597800802500000003694676771929972150_);" width="245.219" height="34.607"/>
			
				<linearGradient id="SVGID_00000100354981621471339650000009624831725335705760_" gradientUnits="userSpaceOnUse" x1="3046.959" y1="2528.5786" x2="3072.3533" y2="3290.3872">
				<stop  offset="0" style="stop-color:#E1473D"/>
				<stop  offset="1" style="stop-color:#E9605A"/>
			</linearGradient>
			<path style="fill:url(#SVGID_00000100354981621471339650000009624831725335705760_);" d="M3236.995,2990.971h-350.398
				c-9.556,0-17.303-7.747-17.303-17.304l0,0c0-9.557,7.747-17.304,17.303-17.304h350.398c9.556,0,17.303,7.747,17.303,17.304l0,0
				C3254.298,2983.224,3246.551,2990.971,3236.995,2990.971z"/>
			
				<linearGradient id="SVGID_00000147205839077503579830000007802732198054335124_" gradientUnits="userSpaceOnUse" x1="4411.3887" y1="1232.8389" x2="3930.5793" y2="1943.8944">
				<stop  offset="0" style="stop-color:#E1473D"/>
				<stop  offset="1" style="stop-color:#E9605A"/>
			</linearGradient>
			<path style="fill:url(#SVGID_00000147205839077503579830000007802732198054335124_);" d="M3237.118,3245.471l-350.598,0.729
				c-9.557,0-17.304-7.747-17.304-17.304l0,0c0-9.557,7.747-17.303,17.304-17.303h350.398c9.557,0,17.304,7.747,17.304,17.303l0,0
				C3254.221,3238.453,3246.674,3245.471,3237.118,3245.471z"/>
		</g>
		<g>
			
				<linearGradient id="SVGID_00000029737597534227217580000000875639250117308859_" gradientUnits="userSpaceOnUse" x1="1088.905" y1="-5226.6362" x2="1141.8575" y2="-5341.8857" gradientTransform="matrix(-0.9996 0.0266 -0.0266 -0.9996 2714.8674 -3609.3596)">
				<stop  offset="0" style="stop-color:#FF928E"/>
				<stop  offset="1" style="stop-color:#FE7062"/>
			</linearGradient>
			<path style="fill:url(#SVGID_00000029737597534227217580000000875639250117308859_);" d="M1705.512,1744.02
				c-0.255-9.614,7.331-17.614,16.944-17.869c9.613-0.255,17.613,7.331,17.869,16.944c0.255,9.613-7.331,17.613-16.944,17.869
				C1713.767,1761.219,1705.767,1753.633,1705.512,1744.02z"/>
			
				<linearGradient id="SVGID_00000005966298806253964130000000086170335948476089_" gradientUnits="userSpaceOnUse" x1="798.3387" y1="-5334.8354" x2="854.5023" y2="-5457.0732" gradientTransform="matrix(-0.9996 0.0266 -0.0266 -0.9996 2714.8674 -3609.3596)">
				<stop  offset="0" style="stop-color:#FF928E"/>
				<stop  offset="1" style="stop-color:#FE7062"/>
			</linearGradient>
			
				<circle style="fill:url(#SVGID_00000005966298806253964130000000086170335948476089_);" cx="2013.669" cy="1850.012" r="18.468"/>
			
				<linearGradient id="SVGID_00000176020182437032098640000012369876664324057006_" gradientUnits="userSpaceOnUse" x1="767.4156" y1="-5254.5176" x2="823.5792" y2="-5376.7554" gradientTransform="matrix(-0.9996 0.0266 -0.0266 -0.9996 2714.8674 -3609.3596)">
				<stop  offset="0" style="stop-color:#FF928E"/>
				<stop  offset="1" style="stop-color:#FE7062"/>
			</linearGradient>
			
				<circle style="fill:url(#SVGID_00000176020182437032098640000012369876664324057006_);" cx="2042.443" cy="1768.904" r="18.468"/>
			
				<linearGradient id="SVGID_00000101823777319920049360000001208341254989910427_" gradientUnits="userSpaceOnUse" x1="785.1218" y1="-5138.0444" x2="851.2222" y2="-5281.9102" gradientTransform="matrix(-0.9996 0.0266 -0.0266 -0.9996 2714.8674 -3609.3596)">
				<stop  offset="0" style="stop-color:#FF928E"/>
				<stop  offset="1" style="stop-color:#FE7062"/>
			</linearGradient>
			<path style="fill:url(#SVGID_00000101823777319920049360000001208341254989910427_);" d="M1991.94,1672.18
				c-0.319-12,9.151-21.987,21.151-22.306c12-0.319,21.987,9.151,22.306,21.151c0.319,12-9.151,21.987-21.151,22.305
				C2002.246,1693.65,1992.259,1684.18,1991.94,1672.18z"/>
			
				<linearGradient id="SVGID_00000121254411812455335320000017227757434041040547_" gradientUnits="userSpaceOnUse" x1="684.1997" y1="-5145.0308" x2="737.152" y2="-5260.2798" gradientTransform="matrix(-0.9996 0.0266 -0.0266 -0.9996 2714.8674 -3609.3596)">
				<stop  offset="0" style="stop-color:#FF928E"/>
				<stop  offset="1" style="stop-color:#FE7062"/>
			</linearGradient>
			<path style="fill:url(#SVGID_00000121254411812455335320000017227757434041040547_);" d="M2107.885,1651.681
				c-0.255-9.613,7.331-17.613,16.944-17.869s17.613,7.331,17.869,16.944c0.255,9.614-7.331,17.614-16.944,17.869
				C2116.14,1668.881,2108.14,1661.295,2107.885,1651.681z"/>
			
				<linearGradient id="SVGID_00000105426525126304957180000005188363513113779103_" gradientUnits="userSpaceOnUse" x1="932.5209" y1="-5363.2134" x2="985.4732" y2="-5478.4624" gradientTransform="matrix(-0.9996 0.0266 -0.0266 -0.9996 2714.8674 -3609.3596)">
				<stop  offset="0" style="stop-color:#FF928E"/>
				<stop  offset="1" style="stop-color:#FE7062"/>
			</linearGradient>
			<path style="fill:url(#SVGID_00000105426525126304957180000005188363513113779103_);" d="M1865.467,1876.382
				c-0.255-9.613,7.331-17.613,16.944-17.869c9.613-0.255,17.613,7.331,17.869,16.944c0.255,9.614-7.331,17.614-16.944,17.869
				C1873.722,1893.581,1865.722,1885.995,1865.467,1876.382z"/>
			
				<linearGradient id="SVGID_00000073680007967398469950000014490079773332033443_" gradientUnits="userSpaceOnUse" x1="737.0502" y1="-5231.5176" x2="770.1002" y2="-5303.4502" gradientTransform="matrix(-0.9996 0.0266 -0.0266 -0.9996 2714.8674 -3609.3596)">
				<stop  offset="0" style="stop-color:#FF928E"/>
				<stop  offset="1" style="stop-color:#FE7062"/>
			</linearGradient>
			
				<circle style="fill:url(#SVGID_00000073680007967398469950000014490079773332033443_);" cx="2090.739" cy="1701.715" r="10.868"/>
			
				<linearGradient id="SVGID_00000072999158883647164830000015813607829842584996_" gradientUnits="userSpaceOnUse" x1="937.8876" y1="-5460.3438" x2="970.9376" y2="-5532.2759" gradientTransform="matrix(-0.9996 0.0266 -0.0266 -0.9996 2714.8674 -3609.3596)">
				<stop  offset="0" style="stop-color:#FF928E"/>
				<stop  offset="1" style="stop-color:#FE7062"/>
			</linearGradient>
			<path style="fill:url(#SVGID_00000072999158883647164830000015813607829842584996_);" d="M1885.205,1936.08
				c-0.159-6,4.575-10.993,10.575-11.153c6-0.159,10.993,4.575,11.153,10.575c0.159,6-4.575,10.993-10.575,11.153
				C1890.357,1946.815,1885.364,1942.081,1885.205,1936.08z"/>
			
				<linearGradient id="SVGID_00000152250108059045188990000009275523300832462513_" gradientUnits="userSpaceOnUse" x1="856.496" y1="-5302.6382" x2="889.5461" y2="-5374.5703" gradientTransform="matrix(-0.9996 0.0266 -0.0266 -0.9996 2714.8674 -3609.3596)">
				<stop  offset="0" style="stop-color:#FF928E"/>
				<stop  offset="1" style="stop-color:#FE7062"/>
			</linearGradient>
			
				<circle style="fill:url(#SVGID_00000152250108059045188990000009275523300832462513_);" cx="1973.233" cy="1775.984" r="10.868"/>
			
				<linearGradient id="SVGID_00000079480290241367593930000007621581926096878498_" gradientUnits="userSpaceOnUse" x1="692.9031" y1="-4871.4712" x2="725.9533" y2="-4943.4038" gradientTransform="matrix(-0.9996 0.0266 -0.0266 -0.9996 2714.8674 -3609.3596)">
				<stop  offset="0" style="stop-color:#FF928E"/>
				<stop  offset="1" style="stop-color:#FE7062"/>
			</linearGradient>
			
				<circle style="fill:url(#SVGID_00000079480290241367593930000007621581926096878498_);" cx="2125.291" cy="1340.639" r="10.868"/>
			
				<linearGradient id="SVGID_00000049910214738346659410000015107932080010099087_" gradientUnits="userSpaceOnUse" x1="720.2203" y1="-5059.5166" x2="753.2704" y2="-5131.4492" gradientTransform="matrix(-0.9996 0.0266 -0.0266 -0.9996 2714.8674 -3609.3596)">
				<stop  offset="0" style="stop-color:#FF928E"/>
				<stop  offset="1" style="stop-color:#FE7062"/>
			</linearGradient>
			
				<circle style="fill:url(#SVGID_00000049910214738346659410000015107932080010099087_);" cx="2102.987" cy="1529.335" r="10.868"/>
			
				<linearGradient id="SVGID_00000080176236439444904960000009535110208014557071_" gradientUnits="userSpaceOnUse" x1="688.3544" y1="-5109.1055" x2="721.4045" y2="-5181.0381" gradientTransform="matrix(-0.9996 0.0266 -0.0266 -0.9996 2714.8674 -3609.3596)">
				<stop  offset="0" style="stop-color:#FF928E"/>
				<stop  offset="1" style="stop-color:#FE7062"/>
			</linearGradient>
			
				<circle style="fill:url(#SVGID_00000080176236439444904960000009535110208014557071_);" cx="2136.159" cy="1578.057" r="10.868"/>
			
				<linearGradient id="SVGID_00000090277087773766522010000016586923076978694020_" gradientUnits="userSpaceOnUse" x1="997.1033" y1="-5460.3408" x2="1030.1534" y2="-5532.2734" gradientTransform="matrix(-0.9996 0.0266 -0.0266 -0.9996 2714.8674 -3609.3596)">
				<stop  offset="0" style="stop-color:#FF928E"/>
				<stop  offset="1" style="stop-color:#FE7062"/>
			</linearGradient>
			<path style="fill:url(#SVGID_00000090277087773766522010000016586923076978694020_);" d="M1826.012,1937.653
				c-0.159-6,4.575-10.993,10.576-11.153c6-0.159,10.993,4.575,11.153,10.576c0.159,6-4.575,10.993-10.576,11.153
				S1826.172,1943.653,1826.012,1937.653z"/>
			
				<linearGradient id="SVGID_00000104705231314448721910000013953253416706244287_" gradientUnits="userSpaceOnUse" x1="1015.7592" y1="-5372.457" x2="1048.8093" y2="-5444.3896" gradientTransform="matrix(-0.9996 0.0266 -0.0266 -0.9996 2714.8674 -3609.3596)">
				<stop  offset="0" style="stop-color:#FF928E"/>
				<stop  offset="1" style="stop-color:#FE7062"/>
			</linearGradient>
			<path style="fill:url(#SVGID_00000104705231314448721910000013953253416706244287_);" d="M1805.026,1850.301
				c-0.159-6,4.575-10.993,10.576-11.153c6-0.159,10.993,4.575,11.153,10.575c0.159,6-4.575,10.993-10.576,11.153
				S1805.186,1856.301,1805.026,1850.301z"/>
			
				<linearGradient id="SVGID_00000053544567081202657670000014142662312670295479_" gradientUnits="userSpaceOnUse" x1="628.9838" y1="-5019.8691" x2="662.0339" y2="-5091.8018" gradientTransform="matrix(-0.9996 0.0266 -0.0266 -0.9996 2714.8674 -3609.3596)">
				<stop  offset="0" style="stop-color:#FF928E"/>
				<stop  offset="1" style="stop-color:#FE7062"/>
			</linearGradient>
			<path style="fill:url(#SVGID_00000053544567081202657670000014142662312670295479_);" d="M2182.268,1487.565
				c-0.159-6,4.575-10.993,10.576-11.153c6-0.159,10.993,4.575,11.153,10.575c0.159,6-4.575,10.993-10.575,11.153
				C2187.421,1498.3,2182.428,1493.566,2182.268,1487.565z"/>
			
				<linearGradient id="SVGID_00000168078422266009084740000009300442265263054485_" gradientUnits="userSpaceOnUse" x1="818.0159" y1="-4802.9473" x2="851.066" y2="-4874.8794" gradientTransform="matrix(-0.9996 0.0266 -0.0266 -0.9996 2714.8674 -3609.3596)">
				<stop  offset="0" style="stop-color:#FF928E"/>
				<stop  offset="1" style="stop-color:#FE7062"/>
			</linearGradient>
			<path style="fill:url(#SVGID_00000168078422266009084740000009300442265263054485_);" d="M1987.542,1275.758
				c-0.159-6,4.575-10.993,10.575-11.153s10.993,4.575,11.153,10.576c0.159,6-4.575,10.993-10.575,11.153
				C1992.694,1286.493,1987.701,1281.759,1987.542,1275.758z"/>
			
				<linearGradient id="SVGID_00000031924749088770572760000002141311795576313510_" gradientUnits="userSpaceOnUse" x1="1110.0546" y1="-5349.394" x2="1143.1047" y2="-5421.3267" gradientTransform="matrix(-0.9996 0.0266 -0.0266 -0.9996 2714.8674 -3609.3596)">
				<stop  offset="0" style="stop-color:#FF928E"/>
				<stop  offset="1" style="stop-color:#FE7062"/>
			</linearGradient>
			
				<circle style="fill:url(#SVGID_00000031924749088770572760000002141311795576313510_);" cx="1721.019" cy="1829.466" r="10.868"/>
			
				<linearGradient id="SVGID_00000135666730715743368940000012848450279737899410_" gradientUnits="userSpaceOnUse" x1="4340.8218" y1="8637.7285" x2="4393.7715" y2="8522.4854" gradientTransform="matrix(0.885 0.4656 -0.4656 0.885 2155.324 -7990.2344)">
				<stop  offset="0" style="stop-color:#FF928E"/>
				<stop  offset="1" style="stop-color:#FE7062"/>
			</linearGradient>
			<path style="fill:url(#SVGID_00000135666730715743368940000012848450279737899410_);" d="M2076.322,1617.423
				c-4.478,8.511-15.006,11.781-23.517,7.304c-8.511-4.477-11.781-15.006-7.303-23.517c4.478-8.511,15.006-11.781,23.517-7.303
				C2077.529,1598.383,2080.799,1608.912,2076.322,1617.423z"/>
			
				<linearGradient id="SVGID_00000183244004689059892050000005696623731291423366_" gradientUnits="userSpaceOnUse" x1="552.6515" y1="-4966.3022" x2="605.6039" y2="-5081.5513" gradientTransform="matrix(0.9996 -0.0266 -0.0266 -0.9996 810.5368 -3559.3433)">
				<stop  offset="0" style="stop-color:#FF928E"/>
				<stop  offset="1" style="stop-color:#FE7062"/>
			</linearGradient>
			<path style="fill:url(#SVGID_00000183244004689059892050000005696623731291423366_);" d="M1560.212,1486.814
				c-0.255-9.613-8.255-17.199-17.869-16.944c-9.613,0.255-17.199,8.256-16.944,17.869c0.255,9.613,8.255,17.199,17.869,16.944
				C1552.881,1504.428,1560.467,1496.428,1560.212,1486.814z"/>
			
				<linearGradient id="SVGID_00000101072170335173693750000007821339925885136035_" gradientUnits="userSpaceOnUse" x1="619.6422" y1="-5024.6943" x2="675.8057" y2="-5146.9326" gradientTransform="matrix(0.9996 -0.0266 -0.0266 -0.9996 810.5368 -3559.3433)">
				<stop  offset="0" style="stop-color:#FF928E"/>
				<stop  offset="1" style="stop-color:#FE7062"/>
			</linearGradient>
			<path style="fill:url(#SVGID_00000101072170335173693750000007821339925885136035_);" d="M1632.679,1549.256
				c-0.271-10.196-8.756-18.242-18.952-17.972c-10.196,0.271-18.242,8.756-17.971,18.952c0.271,10.196,8.756,18.242,18.952,17.972
				C1624.904,1567.937,1632.95,1559.452,1632.679,1549.256z"/>
			
				<linearGradient id="SVGID_00000067942185126325109030000005419380871162466177_" gradientUnits="userSpaceOnUse" x1="636.5837" y1="-5186.7915" x2="702.6843" y2="-5330.6572" gradientTransform="matrix(0.9996 -0.0266 -0.0266 -0.9996 810.5368 -3559.3433)">
				<stop  offset="0" style="stop-color:#FF928E"/>
				<stop  offset="1" style="stop-color:#FE7062"/>
			</linearGradient>
			<path style="fill:url(#SVGID_00000067942185126325109030000005419380871162466177_);" d="M1666.15,1728.954
				c-0.319-12-10.305-21.47-22.306-21.151c-12,0.319-21.47,10.306-21.151,22.306c0.319,12,10.306,21.47,22.306,21.151
				C1656.999,1750.941,1666.469,1740.955,1666.15,1728.954z"/>
			
				<linearGradient id="SVGID_00000082338077703271538630000002186486692631939233_" gradientUnits="userSpaceOnUse" x1="593.9612" y1="-5145.665" x2="646.9136" y2="-5260.9146" gradientTransform="matrix(0.9996 -0.0266 -0.0266 -0.9996 810.5368 -3559.3433)">
				<stop  offset="0" style="stop-color:#FF928E"/>
				<stop  offset="1" style="stop-color:#FE7062"/>
			</linearGradient>
			<path style="fill:url(#SVGID_00000082338077703271538630000002186486692631939233_);" d="M1606.276,1665.006
				c-0.255-9.613-8.256-17.199-17.869-16.944c-9.614,0.255-17.2,8.255-16.944,17.869c0.255,9.614,8.255,17.2,17.869,16.944
				C1598.946,1682.62,1606.532,1674.62,1606.276,1665.006z"/>
			
				<linearGradient id="SVGID_00000094611436386355873120000001602609281029009553_" gradientUnits="userSpaceOnUse" x1="597.9847" y1="-5260.3657" x2="631.035" y2="-5332.2983" gradientTransform="matrix(0.9996 -0.0266 -0.0266 -0.9996 810.5368 -3559.3433)">
				<stop  offset="0" style="stop-color:#FF928E"/>
				<stop  offset="1" style="stop-color:#FE7062"/>
			</linearGradient>
			<path style="fill:url(#SVGID_00000094611436386355873120000001602609281029009553_);" d="M1588.866,1743.269
				c-0.159-6-5.152-10.735-11.153-10.576c-6,0.159-10.735,5.153-10.576,11.153c0.159,6,5.153,10.735,11.153,10.575
				C1584.291,1754.262,1589.025,1749.269,1588.866,1743.269z"/>
			
				<linearGradient id="SVGID_00000014623407007201732640000008802628635786639524_" gradientUnits="userSpaceOnUse" x1="918.71" y1="-4815.2544" x2="951.7603" y2="-4887.187" gradientTransform="matrix(0.9996 -0.0266 -0.0266 -0.9996 810.5368 -3559.3433)">
				<stop  offset="0" style="stop-color:#FF928E"/>
				<stop  offset="1" style="stop-color:#FE7062"/>
			</linearGradient>
			<path style="fill:url(#SVGID_00000014623407007201732640000008802628635786639524_);" d="M1897.623,1289.804
				c-0.159-6-5.153-10.735-11.153-10.576c-6,0.159-10.735,5.153-10.576,11.153c0.159,6,5.153,10.735,11.153,10.576
				S1897.782,1295.804,1897.623,1289.804z"/>
			
				<linearGradient id="SVGID_00000103228847505840274680000010270412675727301270_" gradientUnits="userSpaceOnUse" x1="657.6707" y1="-5325.1821" x2="690.7209" y2="-5397.1152" gradientTransform="matrix(0.9996 -0.0266 -0.0266 -0.9996 810.5368 -3559.3433)">
				<stop  offset="0" style="stop-color:#FF928E"/>
				<stop  offset="1" style="stop-color:#FE7062"/>
			</linearGradient>
			<path style="fill:url(#SVGID_00000103228847505840274680000010270412675727301270_);" d="M1650.252,1806.472
				c-0.159-6-5.153-10.735-11.153-10.576c-6,0.159-10.735,5.153-10.576,11.153c0.159,6,5.153,10.735,11.153,10.576
				C1645.677,1817.465,1650.412,1812.472,1650.252,1806.472z"/>
			
				<linearGradient id="SVGID_00000156588016495303690110000006613479487478347907_" gradientUnits="userSpaceOnUse" x1="4517.438" y1="8512.6992" x2="4570.3901" y2="8397.4502" gradientTransform="matrix(-0.859 0.5119 0.5119 0.859 1137.2875 -7963.585)">
				<stop  offset="0" style="stop-color:#FF928E"/>
				<stop  offset="1" style="stop-color:#FE7062"/>
			</linearGradient>
			<path style="fill:url(#SVGID_00000156588016495303690110000006613479487478347907_);" d="M1510.435,1608.929
				c4.923,8.261,15.61,10.967,23.871,6.045c8.261-4.923,10.967-15.61,6.045-23.872c-4.923-8.261-15.61-10.967-23.872-6.044
				C1508.219,1589.98,1505.512,1600.668,1510.435,1608.929z"/>
			
				<linearGradient id="SVGID_00000080905238261849476040000005231346448140854459_" gradientUnits="userSpaceOnUse" x1="4420.4585" y1="8619.2842" x2="4476.6211" y2="8497.0479" gradientTransform="matrix(-0.859 0.5119 0.5119 0.859 1137.2875 -7963.585)">
				<stop  offset="0" style="stop-color:#FF928E"/>
				<stop  offset="1" style="stop-color:#FE7062"/>
			</linearGradient>
			<path style="fill:url(#SVGID_00000080905238261849476040000005231346448140854459_);" d="M1641.994,1647.666
				c5.221,8.762,16.557,11.632,25.319,6.411c8.762-5.221,11.632-16.557,6.411-25.319c-5.221-8.762-16.557-11.632-25.319-6.411
				C1639.643,1627.568,1636.773,1638.904,1641.994,1647.666z"/>
			
				<linearGradient id="SVGID_00000122685297899492453240000004138026795385617070_" gradientUnits="userSpaceOnUse" x1="4101.2554" y1="8361.3896" x2="4157.4185" y2="8239.1533" gradientTransform="matrix(-0.859 0.5119 0.5119 0.859 1137.2875 -7963.585)">
				<stop  offset="0" style="stop-color:#FF928E"/>
				<stop  offset="1" style="stop-color:#FE7062"/>
			</linearGradient>
			<path style="fill:url(#SVGID_00000122685297899492453240000004138026795385617070_);" d="M1784.173,1262.735
				c5.221,8.762,16.557,11.632,25.319,6.411c8.762-5.221,11.632-16.557,6.411-25.319c-5.221-8.762-16.557-11.632-25.319-6.411
				C1781.822,1242.637,1778.952,1253.973,1784.173,1262.735z"/>
			
				<linearGradient id="SVGID_00000023259297082900138760000017124777595542661527_" gradientUnits="userSpaceOnUse" x1="865.065" y1="-5925.3618" x2="918.0174" y2="-6040.6108" gradientTransform="matrix(-0.9996 0.0266 -0.0266 -0.9996 2714.8674 -3609.3596)">
				<stop  offset="0" style="stop-color:#FF928E"/>
				<stop  offset="1" style="stop-color:#FE7062"/>
			</linearGradient>
			<path style="fill:url(#SVGID_00000023259297082900138760000017124777595542661527_);" d="M1947.849,2436.512
				c-0.255-9.614,7.331-17.614,16.944-17.869c9.613-0.255,17.613,7.331,17.869,16.944c0.255,9.613-7.331,17.613-16.944,17.868
				C1956.104,2453.711,1948.104,2446.125,1947.849,2436.512z"/>
			
				<linearGradient id="SVGID_00000038378775938955564970000005339864498818171322_" gradientUnits="userSpaceOnUse" x1="886.2145" y1="-6048.1196" x2="919.2646" y2="-6120.0518" gradientTransform="matrix(-0.9996 0.0266 -0.0266 -0.9996 2714.8674 -3609.3596)">
				<stop  offset="0" style="stop-color:#FF928E"/>
				<stop  offset="1" style="stop-color:#FE7062"/>
			</linearGradient>
			
				<circle style="fill:url(#SVGID_00000038378775938955564970000005339864498818171322_);" cx="1963.356" cy="2521.958" r="10.868"/>
			
				<linearGradient id="SVGID_00000132769653482989382560000000590616729480458891_" gradientUnits="userSpaceOnUse" x1="1504.3013" y1="-6096.3306" x2="1537.3514" y2="-6168.2632" gradientTransform="matrix(-0.9996 0.0266 -0.0266 -0.9996 2714.8674 -3609.3596)">
				<stop  offset="0" style="stop-color:#FF928E"/>
				<stop  offset="1" style="stop-color:#FE7062"/>
			</linearGradient>
			<path style="fill:url(#SVGID_00000132769653482989382560000000590616729480458891_);" d="M1335.935,2586.88
				c-0.159-6,4.575-10.993,10.575-11.153c6-0.159,10.993,4.575,11.153,10.576c0.159,6-4.575,10.993-10.576,11.153
				C1341.087,2597.615,1336.094,2592.88,1335.935,2586.88z"/>
			
				<linearGradient id="SVGID_00000005252073936988454970000012687822107436909476_" gradientUnits="userSpaceOnUse" x1="694.5759" y1="-6047.71" x2="727.8514" y2="-6120.1328" gradientTransform="matrix(-0.9996 0.0266 -0.0266 -0.9996 2714.8674 -3609.3596)">
				<stop  offset="0" style="stop-color:#FF928E"/>
				<stop  offset="1" style="stop-color:#FE7062"/>
			</linearGradient>
			<path style="fill:url(#SVGID_00000005252073936988454970000012687822107436909476_);" d="M2146.979,2525.044
				c-9.165-11.394,3.63-24.887,15.494-16.34C2171.639,2520.098,2158.844,2533.592,2146.979,2525.044z"/>
			
				<linearGradient id="SVGID_00000098899398803047121530000017567925648640843415_" gradientUnits="userSpaceOnUse" x1="639.5174" y1="-6196.8765" x2="672.793" y2="-6269.2993" gradientTransform="matrix(-0.9996 0.0266 -0.0266 -0.9996 2714.8674 -3609.3596)">
				<stop  offset="0" style="stop-color:#FF928E"/>
				<stop  offset="1" style="stop-color:#FE7062"/>
			</linearGradient>
			<path style="fill:url(#SVGID_00000098899398803047121530000017567925648640843415_);" d="M2205.983,2672.687
				c-9.165-11.394,3.63-24.887,15.494-16.34C2230.643,2667.74,2217.848,2681.234,2205.983,2672.687z"/>
			
				<linearGradient id="SVGID_00000018214750552943828900000011250739524181982081_" gradientUnits="userSpaceOnUse" x1="787.5349" y1="-6007.3413" x2="820.5848" y2="-6079.2734" gradientTransform="matrix(-0.9996 0.0266 -0.0266 -0.9996 2714.8674 -3609.3596)">
				<stop  offset="0" style="stop-color:#FF928E"/>
				<stop  offset="1" style="stop-color:#FE7062"/>
			</linearGradient>
			
				<circle style="fill:url(#SVGID_00000018214750552943828900000011250739524181982081_);" cx="2060.912" cy="2478.571" r="10.868"/>
			
				<linearGradient id="SVGID_00000119829078899604925680000000444291126246666894_" gradientUnits="userSpaceOnUse" x1="571.1973" y1="-6142.3799" x2="604.2475" y2="-6214.3125" gradientTransform="matrix(-0.9996 0.0266 -0.0266 -0.9996 2714.8674 -3609.3596)">
				<stop  offset="0" style="stop-color:#FF928E"/>
				<stop  offset="1" style="stop-color:#FE7062"/>
			</linearGradient>
			
				<circle style="fill:url(#SVGID_00000119829078899604925680000000444291126246666894_);" cx="2280.755" cy="2607.802" r="10.868"/>
			
				<linearGradient id="SVGID_00000081636199055079120620000003855177380349769395_" gradientUnits="userSpaceOnUse" x1="708.1482" y1="-6142.3735" x2="741.1984" y2="-6214.3062" gradientTransform="matrix(-0.9996 0.0266 -0.0266 -0.9996 2714.8674 -3609.3596)">
				<stop  offset="0" style="stop-color:#FF928E"/>
				<stop  offset="1" style="stop-color:#FE7062"/>
			</linearGradient>
			
				<circle style="fill:url(#SVGID_00000081636199055079120620000003855177380349769395_);" cx="2143.858" cy="2611.438" r="10.868"/>
			
				<linearGradient id="SVGID_00000156577096357153842620000002972881964951758246_" gradientUnits="userSpaceOnUse" x1="621.2338" y1="-6044.2983" x2="654.2839" y2="-6116.231" gradientTransform="matrix(-0.9996 0.0266 -0.0266 -0.9996 2714.8674 -3609.3596)">
				<stop  offset="0" style="stop-color:#FF928E"/>
				<stop  offset="1" style="stop-color:#FE7062"/>
			</linearGradient>
			<circle style="fill:url(#SVGID_00000156577096357153842620000002972881964951758246_);" cx="2228.129" cy="2511.09" r="10.868"/>
			
				<linearGradient id="SVGID_00000043417215980311227500000008992870008211747494_" gradientUnits="userSpaceOnUse" x1="909.1346" y1="-5777.248" x2="942.1846" y2="-5849.1807" gradientTransform="matrix(-0.9996 0.0266 -0.0266 -0.9996 2714.8674 -3609.3596)">
				<stop  offset="0" style="stop-color:#FF928E"/>
				<stop  offset="1" style="stop-color:#FE7062"/>
			</linearGradient>
			<circle style="fill:url(#SVGID_00000043417215980311227500000008992870008211747494_);" cx="1933.24" cy="2251.805" r="10.868"/>
			
				<linearGradient id="SVGID_00000160873977783528549450000005895038878583201727_" gradientUnits="userSpaceOnUse" x1="1106.7573" y1="-5739.9399" x2="1139.8075" y2="-5811.8726" gradientTransform="matrix(-0.9996 0.0266 -0.0266 -0.9996 2714.8674 -3609.3596)">
				<stop  offset="0" style="stop-color:#FF928E"/>
				<stop  offset="1" style="stop-color:#FE7062"/>
			</linearGradient>
			
				<circle style="fill:url(#SVGID_00000160873977783528549450000005895038878583201727_);" cx="1734.704" cy="2219.768" r="10.868"/>
			
				<linearGradient id="SVGID_00000135656951182661253480000008660242028074972091_" gradientUnits="userSpaceOnUse" x1="962.2302" y1="-5835.8589" x2="995.2803" y2="-5907.7915" gradientTransform="matrix(-0.9996 0.0266 -0.0266 -0.9996 2714.8674 -3609.3596)">
				<stop  offset="0" style="stop-color:#FF928E"/>
				<stop  offset="1" style="stop-color:#FE7062"/>
			</linearGradient>
			
				<circle style="fill:url(#SVGID_00000135656951182661253480000008660242028074972091_);" cx="1881.725" cy="2311.804" r="10.868"/>
			
				<linearGradient id="SVGID_00000128470931310474974580000017647267002996613823_" gradientUnits="userSpaceOnUse" x1="1064.5532" y1="-5656.2363" x2="1097.6034" y2="-5728.1689" gradientTransform="matrix(-0.9996 0.0266 -0.0266 -0.9996 2714.8674 -3609.3596)">
				<stop  offset="0" style="stop-color:#FF928E"/>
				<stop  offset="1" style="stop-color:#FE7062"/>
			</linearGradient>
			<path style="fill:url(#SVGID_00000128470931310474974580000017647267002996613823_);" d="M1763.8,2135.264
				c-0.159-6,4.575-10.993,10.576-11.153c6-0.159,10.993,4.575,11.153,10.575c0.159,6-4.575,10.993-10.575,11.153
				C1768.953,2145.999,1763.96,2141.264,1763.8,2135.264z"/>
			
				<linearGradient id="SVGID_00000124133070179681987220000000471995802716117400_" gradientUnits="userSpaceOnUse" x1="860.4239" y1="-5885.5171" x2="926.5244" y2="-6029.3828" gradientTransform="matrix(0.9996 -0.0266 -0.0266 -0.9996 810.5368 -3559.3433)">
				<stop  offset="0" style="stop-color:#FF928E"/>
				<stop  offset="1" style="stop-color:#FE7062"/>
			</linearGradient>
			<path style="fill:url(#SVGID_00000124133070179681987220000000471995802716117400_);" d="M1908.487,2421.446
				c-0.319-12-10.305-21.47-22.306-21.151c-12,0.319-21.47,10.305-21.151,22.306c0.319,12,10.306,21.47,22.306,21.151
				C1899.336,2443.433,1908.806,2433.446,1908.487,2421.446z"/>
			
				<linearGradient id="SVGID_00000145034839477933882830000010930234044910942600_" gradientUnits="userSpaceOnUse" x1="1030.65" y1="-6035.7017" x2="1096.7506" y2="-6179.5674" gradientTransform="matrix(0.9996 -0.0266 -0.0266 -0.9996 810.5368 -3559.3433)">
				<stop  offset="0" style="stop-color:#FF928E"/>
				<stop  offset="1" style="stop-color:#FE7062"/>
			</linearGradient>
			<path style="fill:url(#SVGID_00000145034839477933882830000010930234044910942600_);" d="M2082.64,2567.043
				c-0.319-12-10.305-21.47-22.306-21.151c-12,0.319-21.47,10.305-21.151,22.306c0.319,12,10.305,21.47,22.306,21.151
				S2082.959,2579.043,2082.64,2567.043z"/>
			
				<linearGradient id="SVGID_00000123439190182356442600000013344116420837343142_" gradientUnits="userSpaceOnUse" x1="817.8013" y1="-5844.3906" x2="870.7537" y2="-5959.6396" gradientTransform="matrix(0.9996 -0.0266 -0.0266 -0.9996 810.5368 -3559.3433)">
				<stop  offset="0" style="stop-color:#FF928E"/>
				<stop  offset="1" style="stop-color:#FE7062"/>
			</linearGradient>
			<path style="fill:url(#SVGID_00000123439190182356442600000013344116420837343142_);" d="M1848.613,2357.498
				c-0.255-9.613-8.256-17.199-17.869-16.944c-9.613,0.256-17.2,8.256-16.944,17.869c0.255,9.613,8.255,17.199,17.869,16.944
				C1841.282,2375.112,1848.868,2367.112,1848.613,2357.498z"/>
			
				<linearGradient id="SVGID_00000155859744210672798710000002549785795105512094_" gradientUnits="userSpaceOnUse" x1="932.6221" y1="-5619.9775" x2="985.5745" y2="-5735.2266" gradientTransform="matrix(0.9996 -0.0266 -0.0266 -0.9996 810.5368 -3559.3433)">
				<stop  offset="0" style="stop-color:#FF928E"/>
				<stop  offset="1" style="stop-color:#FE7062"/>
			</linearGradient>
			<path style="fill:url(#SVGID_00000155859744210672798710000002549785795105512094_);" d="M1957.418,2130.121
				c-0.255-9.613-8.256-17.199-17.869-16.944c-9.614,0.255-17.2,8.255-16.944,17.868c0.255,9.614,8.255,17.2,17.869,16.944
				C1950.088,2147.734,1957.674,2139.734,1957.418,2130.121z"/>
			
				<linearGradient id="SVGID_00000038405998561469541760000003491199137875413916_" gradientUnits="userSpaceOnUse" x1="471.0413" y1="-5986.9644" x2="523.9937" y2="-6102.2139" gradientTransform="matrix(0.9996 -0.0266 -0.0266 -0.9996 810.5368 -3559.3433)">
				<stop  offset="0" style="stop-color:#FF928E"/>
				<stop  offset="1" style="stop-color:#FE7062"/>
			</linearGradient>
			<path style="fill:url(#SVGID_00000038405998561469541760000003491199137875413916_);" d="M1505.784,2509.239
				c-0.255-9.613-8.256-17.199-17.869-16.944c-9.614,0.255-17.2,8.256-16.944,17.869c0.255,9.613,8.255,17.199,17.869,16.944
				C1498.453,2526.853,1506.04,2518.852,1505.784,2509.239z"/>
			
				<linearGradient id="SVGID_00000010991915916428852620000014118201555476129426_" gradientUnits="userSpaceOnUse" x1="821.825" y1="-5959.0913" x2="854.8751" y2="-6031.0239" gradientTransform="matrix(0.9996 -0.0266 -0.0266 -0.9996 810.5368 -3559.3433)">
				<stop  offset="0" style="stop-color:#FF928E"/>
				<stop  offset="1" style="stop-color:#FE7062"/>
			</linearGradient>
			<path style="fill:url(#SVGID_00000010991915916428852620000014118201555476129426_);" d="M1831.203,2435.76
				c-0.159-6-5.153-10.735-11.153-10.576c-6,0.159-10.735,5.153-10.576,11.153s5.153,10.735,11.153,10.575
				C1826.627,2446.754,1831.362,2441.76,1831.203,2435.76z"/>
			
				<linearGradient id="SVGID_00000117635421037186173180000012566393599469481857_" gradientUnits="userSpaceOnUse" x1="899.2346" y1="-5547.1206" x2="932.2847" y2="-5619.0527" gradientTransform="matrix(0.9996 -0.0266 -0.0266 -0.9996 810.5368 -3559.3433)">
				<stop  offset="0" style="stop-color:#FF928E"/>
				<stop  offset="1" style="stop-color:#FE7062"/>
			</linearGradient>
			<path style="fill:url(#SVGID_00000117635421037186173180000012566393599469481857_);" d="M1897.623,2021.895
				c-0.159-6-5.152-10.735-11.153-10.575s-10.735,5.152-10.576,11.153c0.159,6,5.153,10.735,11.153,10.575
				C1893.048,2032.889,1897.782,2027.896,1897.623,2021.895z"/>
			
				<linearGradient id="SVGID_00000021798533760069262480000003477514631049067964_" gradientUnits="userSpaceOnUse" x1="881.5108" y1="-6023.9077" x2="914.5611" y2="-6095.8403" gradientTransform="matrix(0.9996 -0.0266 -0.0266 -0.9996 810.5368 -3559.3433)">
				<stop  offset="0" style="stop-color:#FF928E"/>
				<stop  offset="1" style="stop-color:#FE7062"/>
			</linearGradient>
			<path style="fill:url(#SVGID_00000021798533760069262480000003477514631049067964_);" d="M1892.589,2498.963
				c-0.159-6-5.153-10.735-11.153-10.575c-6,0.159-10.735,5.153-10.576,11.153s5.153,10.735,11.153,10.575
				C1888.014,2509.957,1892.748,2504.964,1892.589,2498.963z"/>
			
				<linearGradient id="SVGID_00000136393298044581873100000007145740500132992666_" gradientUnits="userSpaceOnUse" x1="904.3696" y1="-6152.5859" x2="937.4197" y2="-6224.5186" gradientTransform="matrix(0.9996 -0.0266 -0.0266 -0.9996 810.5368 -3559.3433)">
				<stop  offset="0" style="stop-color:#FF928E"/>
				<stop  offset="1" style="stop-color:#FE7062"/>
			</linearGradient>
			<path style="fill:url(#SVGID_00000136393298044581873100000007145740500132992666_);" d="M1918.861,2626.982
				c-0.159-6-5.153-10.735-11.153-10.575s-10.735,5.152-10.576,11.153s5.153,10.735,11.153,10.576
				C1914.286,2637.976,1919.021,2632.982,1918.861,2626.982z"/>
			
				<linearGradient id="SVGID_00000159470624223301901070000017088687257551009977_" gradientUnits="userSpaceOnUse" x1="834.7248" y1="-6090.9878" x2="867.8135" y2="-6163.0044" gradientTransform="matrix(0.9996 -0.0266 -0.0266 -0.9996 810.5368 -3559.3433)">
				<stop  offset="0" style="stop-color:#FF928E"/>
				<stop  offset="1" style="stop-color:#FE7062"/>
			</linearGradient>
			<path style="fill:url(#SVGID_00000159470624223301901070000017088687257551009977_);" d="M1847.495,2569.463
				c1.247-7.693-5.514-14.103-13.129-12.448c-4.23,0.919-7.616,4.49-8.309,8.763c-1.247,7.693,5.514,14.103,13.129,12.448
				C1843.417,2577.307,1846.802,2573.736,1847.495,2569.463z"/>
			
				<linearGradient id="SVGID_00000044868009999498141600000006027496120157666731_" gradientUnits="userSpaceOnUse" x1="559.0425" y1="-6152.4985" x2="592.1313" y2="-6224.5151" gradientTransform="matrix(0.9996 -0.0266 -0.0266 -0.9996 810.5368 -3559.3433)">
				<stop  offset="0" style="stop-color:#FF928E"/>
				<stop  offset="1" style="stop-color:#FE7062"/>
			</linearGradient>
			<path style="fill:url(#SVGID_00000044868009999498141600000006027496120157666731_);" d="M1573.559,2638.283
				c1.247-7.693-5.514-14.103-13.129-12.448c-4.23,0.919-7.616,4.489-8.309,8.763c-1.247,7.693,5.514,14.103,13.13,12.448
				C1569.481,2646.127,1572.867,2642.556,1573.559,2638.283z"/>
			
				<linearGradient id="SVGID_00000027591894913456115990000014515060508471274897_" gradientUnits="userSpaceOnUse" x1="610.8896" y1="-6010.6206" x2="643.9398" y2="-6082.5532" gradientTransform="matrix(0.9996 -0.0266 -0.0266 -0.9996 810.5368 -3559.3433)">
				<stop  offset="0" style="stop-color:#FF928E"/>
				<stop  offset="1" style="stop-color:#FE7062"/>
			</linearGradient>
			<path style="fill:url(#SVGID_00000027591894913456115990000014515060508471274897_);" d="M1621.722,2492.88
				c-0.159-6-5.152-10.735-11.153-10.575s-10.735,5.153-10.576,11.153c0.159,6,5.153,10.735,11.153,10.575
				C1617.147,2503.874,1621.882,2498.88,1621.722,2492.88z"/>
			
				<linearGradient id="SVGID_00000081635325735910844350000010059722139834570933_" gradientUnits="userSpaceOnUse" x1="664.7264" y1="-5940.8794" x2="697.7766" y2="-6012.812" gradientTransform="matrix(0.9996 -0.0266 -0.0266 -0.9996 810.5368 -3559.3433)">
				<stop  offset="0" style="stop-color:#FF928E"/>
				<stop  offset="1" style="stop-color:#FE7062"/>
			</linearGradient>
			<path style="fill:url(#SVGID_00000081635325735910844350000010059722139834570933_);" d="M1673.682,2421.735
				c-0.159-6-5.152-10.735-11.153-10.576c-6,0.159-10.735,5.153-10.576,11.153c0.159,6,5.153,10.735,11.153,10.575
				C1669.107,2432.728,1673.842,2427.735,1673.682,2421.735z"/>
			
				<linearGradient id="SVGID_00000013901760832303024680000000202817255048601486_" gradientUnits="userSpaceOnUse" x1="709.6754" y1="-6031.1777" x2="742.7256" y2="-6103.1104" gradientTransform="matrix(0.9996 -0.0266 -0.0266 -0.9996 810.5368 -3559.3433)">
				<stop  offset="0" style="stop-color:#FF928E"/>
				<stop  offset="1" style="stop-color:#FE7062"/>
			</linearGradient>
			<path style="fill:url(#SVGID_00000013901760832303024680000000202817255048601486_);" d="M1721.016,2510.802
				c-0.159-6-5.152-10.735-11.153-10.576s-10.735,5.153-10.576,11.153c0.159,6,5.153,10.735,11.153,10.575
				C1716.44,2521.795,1721.175,2516.802,1721.016,2510.802z"/>
			
				<linearGradient id="SVGID_00000092445541493935077180000003595995396167542162_" gradientUnits="userSpaceOnUse" x1="660.5719" y1="-6097.0039" x2="693.6221" y2="-6168.9365" gradientTransform="matrix(0.9996 -0.0266 -0.0266 -0.9996 810.5368 -3559.3433)">
				<stop  offset="0" style="stop-color:#FF928E"/>
				<stop  offset="1" style="stop-color:#FE7062"/>
			</linearGradient>
			<path style="fill:url(#SVGID_00000092445541493935077180000003595995396167542162_);" d="M1673.683,2577.907
				c-0.159-6-5.152-10.735-11.153-10.575s-10.735,5.153-10.576,11.153c0.159,6,5.153,10.735,11.153,10.575
				C1669.107,2588.901,1673.842,2583.907,1673.683,2577.907z"/>
			
				<linearGradient id="SVGID_00000160176944510123831140000010648323883750216881_" gradientUnits="userSpaceOnUse" x1="4545.3022" y1="9379.9678" x2="4601.4648" y2="9257.7305" gradientTransform="matrix(-0.859 0.5119 0.5119 0.859 1137.2875 -7963.585)">
				<stop  offset="0" style="stop-color:#FF928E"/>
				<stop  offset="1" style="stop-color:#FE7062"/>
			</linearGradient>
			<path style="fill:url(#SVGID_00000160176944510123831140000010648323883750216881_);" d="M1924.147,2365
				c5.221,8.762,16.557,11.633,25.319,6.411c8.762-5.221,11.632-16.557,6.411-25.319c-5.221-8.762-16.557-11.632-25.319-6.411
				C1921.796,2344.903,1918.926,2356.238,1924.147,2365z"/>
			
				<linearGradient id="SVGID_00000063630261888584951030000009300378093112863928_" gradientUnits="userSpaceOnUse" x1="4784.958" y1="9459.1182" x2="4841.1211" y2="9336.8818" gradientTransform="matrix(-0.859 0.5119 0.5119 0.859 1137.2875 -7963.585)">
				<stop  offset="0" style="stop-color:#FF928E"/>
				<stop  offset="1" style="stop-color:#FE7062"/>
			</linearGradient>
			<path style="fill:url(#SVGID_00000063630261888584951030000009300378093112863928_);" d="M1758.8,2555.671
				c5.221,8.762,16.557,11.632,25.319,6.411c8.762-5.221,11.632-16.557,6.411-25.319c-5.221-8.762-16.557-11.633-25.319-6.411
				S1753.578,2546.908,1758.8,2555.671z"/>
			
				<linearGradient id="SVGID_00000063596171670536778010000018278374554594494866_" gradientUnits="userSpaceOnUse" x1="4455.6523" y1="8906.5225" x2="4511.8149" y2="8784.2861" gradientTransform="matrix(-0.859 0.5119 0.5119 0.859 1137.2875 -7963.585)">
				<stop  offset="0" style="stop-color:#FF928E"/>
				<stop  offset="1" style="stop-color:#FE7062"/>
			</linearGradient>
			<path style="fill:url(#SVGID_00000063596171670536778010000018278374554594494866_);" d="M1758.8,1912.419
				c5.221,8.762,16.557,11.632,25.319,6.411c8.762-5.221,11.632-16.557,6.411-25.319c-5.221-8.762-16.557-11.632-25.319-6.411
				C1756.448,1892.322,1753.578,1903.657,1758.8,1912.419z"/>
		</g>
	</g>
</g>
</svg>
