<?xml version="1.0" encoding="utf-8"?>
<!-- Generator: Adobe Illustrator 27.5.0, SVG Export Plug-In . SVG Version: 6.00 Build 0)  -->
<svg version="1.1" xmlns="http://www.w3.org/2000/svg" xmlns:xlink="http://www.w3.org/1999/xlink" x="0px" y="0px"
	 viewBox="0 0 500 500" style="enable-background:new 0 0 500 500;" xml:space="preserve">
<g id="BACKGROUND">
	<g>
		<rect style="fill-rule:evenodd;clip-rule:evenodd;fill:#FFEED1;" width="500" height="500"/>
		<g>
			
				<ellipse transform="matrix(0.9732 -0.2298 0.2298 0.9732 -18.6343 77.7832)" style="fill-rule:evenodd;clip-rule:evenodd;fill:#FFFAF0;" cx="324.706" cy="118.913" rx="59.018" ry="59.018"/>
			<path style="fill-rule:evenodd;clip-rule:evenodd;fill:#FFFAF0;" d="M106.837,85.267c10.937,0,19.856-8.92,19.856-19.856
				c0-10.936-8.92-19.856-19.856-19.856c-10.936,0-19.856,8.92-19.856,19.856C86.98,76.347,95.9,85.267,106.837,85.267z"/>
			
				<ellipse transform="matrix(0.7071 -0.7071 0.7071 0.7071 -36.8199 314.4049)" style="fill-rule:evenodd;clip-rule:evenodd;fill:#FFFAF0;" cx="361.11" cy="201.648" rx="91.009" ry="91.009"/>
			
				<ellipse transform="matrix(0.9871 -0.1602 0.1602 0.9871 -18.6877 39.0949)" style="fill-rule:evenodd;clip-rule:evenodd;fill:#FFFAF0;" cx="233.146" cy="135.46" rx="91.009" ry="91.009"/>
			
				<ellipse transform="matrix(0.9566 -0.2916 0.2916 0.9566 -42.3137 46.5285)" style="fill-rule:evenodd;clip-rule:evenodd;fill:#FFFAF0;" cx="134.966" cy="165.245" rx="59.018" ry="59.018"/>
			
				<ellipse transform="matrix(0.9728 -0.2316 0.2316 0.9728 -57.6955 39.7537)" style="fill-rule:evenodd;clip-rule:evenodd;fill:#FFFAF0;" cx="140.483" cy="265.63" rx="91.009" ry="91.009"/>
			
				<ellipse transform="matrix(0.9734 -0.2293 0.2293 0.9734 -67.3898 85.8493)" style="fill-rule:evenodd;clip-rule:evenodd;fill:#FFFAF0;" cx="335.738" cy="332.922" rx="91.009" ry="91.009"/>
			
				<ellipse transform="matrix(0.9561 -0.2929 0.2929 0.9561 -98.9804 62.1774)" style="fill-rule:evenodd;clip-rule:evenodd;fill:#FFFAF0;" cx="158.132" cy="361.604" rx="59.018" ry="59.018"/>
			
				<ellipse transform="matrix(0.9596 -0.2815 0.2815 0.9596 -60.0715 124.0985)" style="fill-rule:evenodd;clip-rule:evenodd;fill:#FFFAF0;" cx="401.926" cy="271.146" rx="59.018" ry="59.018"/>
			<path style="fill-rule:evenodd;clip-rule:evenodd;fill:#FFFAF0;" d="M143.24,53.276c4.861,0,8.825-3.964,8.825-8.825
				s-3.965-8.825-8.825-8.825s-8.825,3.964-8.825,8.825S138.38,53.276,143.24,53.276z"/>
			<path style="fill-rule:evenodd;clip-rule:evenodd;fill:#FFFAF0;" d="M443.294,106.227c10.937,0,19.856-8.92,19.856-19.856
				c0-10.936-8.92-19.856-19.856-19.856c-10.936,0-19.856,8.92-19.856,19.856C423.438,97.307,432.358,106.227,443.294,106.227z"/>
			<path style="fill-rule:evenodd;clip-rule:evenodd;fill:#FFFAF0;" d="M459.841,152.559c4.861,0,8.825-3.964,8.825-8.825
				c0-4.861-3.965-8.825-8.825-8.825s-8.825,3.964-8.825,8.825C451.016,148.594,454.981,152.559,459.841,152.559z"/>
			<path style="fill-rule:evenodd;clip-rule:evenodd;fill:#FFEED1;" d="M143.24,165.796c4.861,0,8.825-3.965,8.825-8.825
				c0-4.86-3.965-8.825-8.825-8.825s-8.825,3.964-8.825,8.825C134.415,161.832,138.38,165.796,143.24,165.796z"/>
			<path style="fill-rule:evenodd;clip-rule:evenodd;fill:#FFEED1;" d="M334.25,97.83c4.861,0,8.825-3.965,8.825-8.825
				c0-4.861-3.964-8.825-8.825-8.825c-4.861,0-8.825,3.964-8.825,8.825C325.426,93.866,329.39,97.83,334.25,97.83z"/>
			<path style="fill-rule:evenodd;clip-rule:evenodd;fill:#FFEED1;" d="M346.1,194.211c4.861,0,8.825-3.964,8.825-8.825
				c0-4.861-3.965-8.825-8.825-8.825c-4.861,0-8.825,3.964-8.825,8.825C337.275,190.246,341.239,194.211,346.1,194.211z"/>
		</g>
	</g>
</g>
<g id="OBJECTS">
	<g>
		<path style="fill-rule:evenodd;clip-rule:evenodd;fill:#C7507B;" d="M373.008,264.567c30.729,38.804-4.835,143.367,9.219,169.719
			c12.628,23.678,23.743,36.762,28.07,63.594l-302.327,1.22c-24.18-41.509,16.611-72.163,22.118-105.482
			c7.719-46.698-14.199-91.63,4.988-124.339C186.236,280.201,329.99,210.245,373.008,264.567z"/>
		<path style="fill-rule:evenodd;clip-rule:evenodd;fill:#55ACE6;" d="M224.121,240.932c-28.865,5.338-63.373,25.349-79.317,32.919
			c-52.717,25.027-28.321,49.374,16.329,41.542c26.532-4.654,54.738-14.448,79.788-20.115
			C297.626,282.453,276.374,231.269,224.121,240.932z"/>
		<path style="fill-rule:evenodd;clip-rule:evenodd;fill:#4398D1;" d="M361.688,279.842
			c40.889,19.936-18.175,127.361-10.154,170.254c4.234,22.644,12.924,34.463,19.158,49.903H209.5
			c16.836-58.06-45.287-181.614,21.475-228.685C244.573,270.706,328.469,263.646,361.688,279.842z"/>
		<path style="fill-rule:evenodd;clip-rule:evenodd;fill:#F280AA;" d="M243.318,218.134c9.314,26.507,6.573,68.201,3.243,99.358
			c-2.661,24.897-15.457,67.649-10.835,80.845c10.576,30.197,34.332,52.948,32.425,101.663H99.023
			c-24.517-80,70.956-102.913,59.991-247.206C182.153,249.471,176.768,206.908,243.318,218.134z"/>
		<path style="fill-rule:evenodd;clip-rule:evenodd;fill:#E36D98;" d="M155.86,266.39c31.46,9.259,30.551,43.4,26.532,67.869
			C198.712,312.237,196.89,270.947,155.86,266.39z"/>
		<path style="fill-rule:evenodd;clip-rule:evenodd;fill:#C7507B;" d="M243.318,218.134c9.314,26.507,6.572,68.201,3.243,99.358
			c-2.661,24.897,1.236,72.517,5.858,85.714c10.576,30.197,17.64,48.08,15.733,96.794h-30.521
			c8.762-37.027,1.61-68.829-7.082-94.356c-8.692-25.527,0.315-95.289,9.218-113.888c8.904-18.599-42.631-26.276-37.642-69.139
			C221.066,194.925,233.751,216.96,243.318,218.134z"/>
		<path style="fill-rule:evenodd;clip-rule:evenodd;fill:#FBC9BE;" d="M290.534,225.489l-42.404,7.266l7.497,49.845
			c3.403,22.627,47.05,14.585,43.671-5.366L290.534,225.489z"/>
		<path style="fill-rule:evenodd;clip-rule:evenodd;fill:#F0B7AA;" d="M288.567,213.879l-42.405,7.266l8.165,52.615
			c16.705,0.234,32.366-7.123,40.648-22.041L288.567,213.879z"/>
		<path style="fill-rule:evenodd;clip-rule:evenodd;fill:#55ACE6;" d="M289.502,375.817c6.796-13.745,13.678-33.562,26.657-58.135
			c33.858-64.105,85.082-41.079,51.033,26.038c-11.35,22.376-29.436,41.371-48.751,57.669
			C301.52,415.667,270.621,414.003,289.502,375.817z"/>
		<path style="fill-rule:evenodd;clip-rule:evenodd;fill:#F280AA;" d="M290.077,207.312c-100.063,24.399-9.428,151.838,9.012,139.1
			c18.441-12.738,39.599,56.89,22.901,90.01c-11.792,23.391-42.538,38.639-47.298,63.578h150.69
			c-4.19-26.385-29.353-56.408-37.069-79.559C378.182,390.044,453.662,208.143,290.077,207.312z"/>
		<path style="fill-rule:evenodd;clip-rule:evenodd;fill:#C7507B;" d="M290.077,207.312c-100.063,24.399-9.428,151.838,9.012,139.1
			c18.441-12.738,39.599,56.89,22.901,90.01c-11.792,23.391-42.538,12.962-47.298,63.578h37.936
			c1.088-29.976,24.269-43.688,39.211-72.699c14.942-29.011,0.593-111.68-47.45-88.987c-38.661,18.262-47.708-40.144-10.548-75.366
			c19.177-18.176,25.816-31.863,22.11-53.765C305.701,206.936,303.266,207.379,290.077,207.312z"/>
		<path style="fill-rule:evenodd;clip-rule:evenodd;fill:#55ACE6;" d="M267.044,304.871c17.067-1.805,34.527,39.718,48.404,66.554
			c10.269,19.86-9.723,54.324-34.106,29.556c-7.924-8.048-49.829-59.051-37.891-85.88
			C247.622,305.728,254.371,306.212,267.044,304.871z"/>
		<path style="fill-rule:evenodd;clip-rule:evenodd;fill:#55ACE6;" d="M181.447,207.355c-0.291,32.834-10.107,62.673-22.543,90.841
			c-9.03,20.453-48.06,24.111-45.636-10.562c1.322-18.912,23.773-88.431,40.29-94.774
			C171.876,185.824,181.638,185.743,181.447,207.355z"/>
		<path style="fill-rule:evenodd;clip-rule:evenodd;fill:#21334A;" d="M183.046,143.676c22.973,12.039,12.051,42.788,17.76,58.082
			C162.741,184.338,170.087,158.791,183.046,143.676z"/>
		<path style="fill-rule:evenodd;clip-rule:evenodd;fill:#FBC9BE;" d="M227.146,107.097c48.392-12.848,68.427,35.568,82.075,78.912
			c8.692,27.607-7.693,60.164-38.086,71.838c-21.459,8.243-49.701-4.746-63.205-29.693
			C184.362,184.607,172.449,121.621,227.146,107.097z"/>
		<path style="fill-rule:evenodd;clip-rule:evenodd;fill:#C9897B;" d="M248.63,215.968c-11.171,3.196-12.453-4.673-14.587-14.753
			C231.447,211.665,233.968,223.888,248.63,215.968z"/>
		<path style="fill-rule:evenodd;clip-rule:evenodd;fill:#21334A;" d="M316.896,177.395c8.9-95.428-115.33-98.921-126.808-54.148
			C129.18,167.858,300.554,185.213,316.896,177.395z"/>
		<path style="fill-rule:evenodd;clip-rule:evenodd;fill:#21334A;" d="M178.256,146.589c3.103-4.934,6.468-8.886,12.07-8.128
			c7.828,13.438,32.394,42.917,55.432,46.703C209.337,190.267,184.243,158.455,178.256,146.589z"/>
		<path style="fill-rule:evenodd;clip-rule:evenodd;fill:#21334A;" d="M216.552,181.601c1.185-2.322,5.877-0.549,4.693,1.771
			c-2.339,4.665-8.975,10.987-17.447,13.517c-2.593,0.163-2.732-3.525-0.138-3.688C211.963,189.382,215.005,185.179,216.552,181.601
			z"/>
		<path style="fill-rule:evenodd;clip-rule:evenodd;fill:#21334A;" d="M241.631,174.198c-2.436-0.926-3.406,3.787-0.97,4.713
			c4.865,1.888,13.472,1.436,21.451-2.375c2.032-1.619,0.474-4.04-1.559-2.42C251.835,176.858,245.18,175.813,241.631,174.198z"/>
		<path style="fill-rule:evenodd;clip-rule:evenodd;fill:#C9897B;" d="M234.778,235.502c6.637-8.429,16.507-13.584,33.433-14.222
			C254.267,227.106,245.369,230.927,234.778,235.502z"/>
		<path style="fill-rule:evenodd;clip-rule:evenodd;fill:#C9897B;" d="M244.994,236.018c6.383-0.138,13.856-3.398,19.153-7.727
			C263.454,234.693,250.072,240.127,244.994,236.018z"/>
		<g>
			<path style="fill-rule:evenodd;clip-rule:evenodd;fill:#FBC9BE;" d="M312.36,161.333c-4.28-0.136-7.957,6.25-8.212,14.265
				c-0.255,8.014,3.008,14.621,7.288,14.757c4.28,0.136,7.957-6.25,8.212-14.264C319.904,168.076,316.641,161.469,312.36,161.333z"
				/>
			
				<path style="fill-rule:evenodd;clip-rule:evenodd;fill:none;stroke:#C9897B;stroke-width:1.1999;stroke-linecap:round;stroke-linejoin:round;stroke-miterlimit:22.9256;" d="
				M314.989,165.913c-3.671-1.115-7.354,2.617-5.438,14.083"/>
			
				<path style="fill-rule:evenodd;clip-rule:evenodd;fill:none;stroke:#C9897B;stroke-width:1.1999;stroke-linecap:round;stroke-linejoin:round;stroke-miterlimit:22.9256;" d="
				M309.296,174.571c2.857-0.194,5.835,0.328,6.433,3.911"/>
		</g>
		<path style="opacity:0.1;fill-rule:evenodd;clip-rule:evenodd;fill:#EB6395;" d="M262.297,196.047
			c-6.375,1.613-10.762,6.005-9.799,9.809c0.963,3.804,6.911,5.58,13.286,3.967c6.374-1.613,10.761-6.005,9.798-9.809
			C274.62,196.209,268.672,194.433,262.297,196.047z"/>
		<path style="opacity:0.1;fill-rule:evenodd;clip-rule:evenodd;fill:#EB6395;" d="M216.603,213.521
			c-5.565,3.502-8.382,9.033-6.292,12.354c2.09,3.321,8.296,3.174,13.861-0.328c5.565-3.503,8.382-9.034,6.292-12.355
			C228.374,209.872,222.168,210.018,216.603,213.521z"/>
		<path style="fill-rule:evenodd;clip-rule:evenodd;fill:#FFFFFF;" d="M266.916,252.439c-13.713-1.248-37.816-20.362-51.113-10.389
			c-12.567,9.425,3.841,60.775,24.102,58.592C289.198,295.332,278.788,253.52,266.916,252.439z"/>
		<path style="fill-rule:evenodd;clip-rule:evenodd;fill:#FBC9BE;" d="M235.628,277.105c-1.171-9.685-11.227-22.906-7.078-27.23
			c2.375-2.478,11.987,14.02,19.077,23.892c-2.87-10.159-9.655-24.665-7.383-26.362c5.047-3.769,20.792,26.065,24.108,33.297
			c0.258-9.87,1.968-17.676,3.557-17.638c3.047,0.075,7.698,41.374-7.43,49.29c-21.593,11.297-44.615-47.289-39.084-51.418
			C223.666,259.242,228.916,269.939,235.628,277.105z"/>
		<path style="opacity:0.2;fill-rule:evenodd;clip-rule:evenodd;" d="M203.149,179.357c4.861-8.459,19.282-16.702,17.151-22.304
			c-1.219-3.207-16.51,8.225-26.893,14.544c6.61-8.231,18.521-18.936,17.092-21.384c-1.988-3.407-12.983,3.677-22.368,10.766
			c0.134,12.457,1.319,21.194,5.719,34.135c15.13-9.631,30.734-21.624,28.715-25.085
			C221.137,167.585,212.126,175.382,203.149,179.357z"/>
		<path style="fill-rule:evenodd;clip-rule:evenodd;fill:#FBC9BE;" d="M198.524,176.356c4.861-8.458,19.282-16.701,17.151-22.303
			c-1.219-3.208-16.51,8.225-26.893,14.544c6.61-8.231,18.52-18.935,17.092-21.384c-3.175-5.441-29.32,15.874-35.198,21.237
			c3.617-9.187,5.092-17.04,3.613-17.627c-2.835-1.121-23.245,35.081-12.411,48.277c15.465,18.833,59.54-26.109,56.061-32.07
			C216.513,164.584,207.501,172.381,198.524,176.356z"/>
		
			<path style="fill-rule:evenodd;clip-rule:evenodd;fill:none;stroke:#21334A;stroke-width:2.3998;stroke-linecap:round;stroke-linejoin:round;stroke-miterlimit:22.9256;" d="
			M248.757,191.955c6.135,1.432,12.992-2.483,14.787-7.243"/>
		
			<path style="fill-rule:evenodd;clip-rule:evenodd;fill:none;stroke:#21334A;stroke-width:2.3998;stroke-linecap:round;stroke-linejoin:round;stroke-miterlimit:22.9256;" d="
			M210.871,205.492c5.071,3.245,12.759-0.036,15.898-4.285"/>
		<path style="fill-rule:evenodd;clip-rule:evenodd;fill:#E36D98;" d="M298.852,333.837c26.029-19.948,64.07-7.631,70.459,18.594
			C364.372,317.954,326.728,303.387,298.852,333.837z"/>
		<path style="fill-rule:evenodd;clip-rule:evenodd;fill:#E36D98;" d="M299.899,274.475c11.179-14.565,33.471-26.933,16.813-62.472
			C344.835,245.496,318.49,270.019,299.899,274.475z"/>
		<path style="fill-rule:evenodd;clip-rule:evenodd;fill:#E36D98;" d="M210.724,282.189c-8.085-16.485-16.893-35.645-7.459-63.246
			C181.151,236.693,193.378,274.151,210.724,282.189z"/>
	</g>
</g>
</svg>
